<svg width="115" height="103" viewBox="0 0 115 103" fill="none" xmlns="http://www.w3.org/2000/svg">
<path d="M38.75 16H1.25V102.5" stroke="white" stroke-width="2"/>
<path d="M27.5 0.75H115V33H27.5V0.75Z" fill="url(#paint0_linear_550_19)"/>
<rect x="27.5" y="0.75" width="5.84919" height="32.25" fill="white"/>
<path d="M47.0114 22.375H45.1477L49.3352 10.7386H51.3636L55.5511 22.375H53.6875L50.3977 12.8523H50.3068L47.0114 22.375ZM47.3239 17.8182H53.3693V19.2955H47.3239V17.8182ZM57.1733 22.375V13.6477H58.8722V22.375H57.1733ZM58.0312 12.3011C57.7358 12.3011 57.482 12.2027 57.2699 12.0057C57.0616 11.8049 56.9574 11.5663 56.9574 11.2898C56.9574 11.0095 57.0616 10.7708 57.2699 10.5739C57.482 10.3731 57.7358 10.2727 58.0312 10.2727C58.3267 10.2727 58.5786 10.3731 58.7869 10.5739C58.9991 10.7708 59.1051 11.0095 59.1051 11.2898C59.1051 11.5663 58.9991 11.8049 58.7869 12.0057C58.5786 12.2027 58.3267 12.3011 58.0312 12.3011ZM61.1577 22.375V13.6477H62.7997V15.0341H62.8906C63.0497 14.5644 63.33 14.1951 63.7315 13.9261C64.1368 13.6534 64.5952 13.517 65.1065 13.517C65.2126 13.517 65.3376 13.5208 65.4815 13.5284C65.6293 13.536 65.7448 13.5455 65.8281 13.5568V15.1818C65.7599 15.1629 65.6387 15.142 65.4645 15.1193C65.2902 15.0928 65.116 15.0795 64.9418 15.0795C64.5402 15.0795 64.1823 15.1648 63.8679 15.3352C63.5573 15.5019 63.3111 15.7348 63.1293 16.0341C62.9474 16.3295 62.8565 16.6667 62.8565 17.0455V22.375H61.1577ZM67.2983 25.6477V13.6477H68.9574V15.0625H69.0994C69.1979 14.8807 69.34 14.6705 69.5256 14.4318C69.7112 14.1932 69.9688 13.9848 70.2983 13.8068C70.6278 13.625 71.0634 13.5341 71.6051 13.5341C72.3097 13.5341 72.9384 13.7121 73.4915 14.0682C74.0445 14.4242 74.4782 14.9375 74.7926 15.608C75.1108 16.2784 75.2699 17.0852 75.2699 18.0284C75.2699 18.9716 75.1127 19.7803 74.7983 20.4545C74.4839 21.125 74.0521 21.642 73.5028 22.0057C72.9536 22.3655 72.3267 22.5455 71.6222 22.5455C71.0919 22.5455 70.6581 22.4564 70.321 22.2784C69.9877 22.1004 69.7263 21.892 69.5369 21.6534C69.3475 21.4148 69.2017 21.2027 69.0994 21.017H68.9972V25.6477H67.2983ZM68.9631 18.0114C68.9631 18.625 69.0521 19.1629 69.2301 19.625C69.4081 20.0871 69.6657 20.4489 70.0028 20.7102C70.34 20.9678 70.7528 21.0966 71.2415 21.0966C71.7491 21.0966 72.1733 20.9621 72.5142 20.6932C72.8551 20.4205 73.1127 20.0511 73.2869 19.5852C73.465 19.1193 73.554 18.5947 73.554 18.0114C73.554 17.4356 73.4669 16.9186 73.2926 16.4602C73.1222 16.0019 72.8646 15.6402 72.5199 15.375C72.179 15.1098 71.7528 14.9773 71.2415 14.9773C70.7491 14.9773 70.3324 15.1042 69.9915 15.358C69.6544 15.6117 69.3987 15.9659 69.2244 16.4205C69.0502 16.875 68.9631 17.4053 68.9631 18.0114ZM80.8494 22.5511C80.0313 22.5511 79.3172 22.3636 78.7074 21.9886C78.0975 21.6136 77.6241 21.089 77.2869 20.4148C76.9498 19.7405 76.7812 18.9527 76.7812 18.0511C76.7812 17.1458 76.9498 16.3542 77.2869 15.6761C77.6241 14.9981 78.0975 14.4716 78.7074 14.0966C79.3172 13.7216 80.0313 13.5341 80.8494 13.5341C81.6676 13.5341 82.3816 13.7216 82.9915 14.0966C83.6013 14.4716 84.0748 14.9981 84.4119 15.6761C84.7491 16.3542 84.9176 17.1458 84.9176 18.0511C84.9176 18.9527 84.7491 19.7405 84.4119 20.4148C84.0748 21.089 83.6013 21.6136 82.9915 21.9886C82.3816 22.3636 81.6676 22.5511 80.8494 22.5511ZM80.8551 21.125C81.3854 21.125 81.8248 20.9848 82.1733 20.7045C82.5218 20.4242 82.7794 20.0511 82.946 19.5852C83.1165 19.1193 83.2017 18.6061 83.2017 18.0455C83.2017 17.4886 83.1165 16.9773 82.946 16.5114C82.7794 16.0417 82.5218 15.6648 82.1733 15.3807C81.8248 15.0966 81.3854 14.9545 80.8551 14.9545C80.321 14.9545 79.8778 15.0966 79.5256 15.3807C79.1771 15.6648 78.9176 16.0417 78.7472 16.5114C78.5805 16.9773 78.4972 17.4886 78.4972 18.0455C78.4972 18.6061 78.5805 19.1193 78.7472 19.5852C78.9176 20.0511 79.1771 20.4242 79.5256 20.7045C79.8778 20.9848 80.321 21.125 80.8551 21.125ZM86.8139 22.375V13.6477H88.456V15.0341H88.5469C88.706 14.5644 88.9863 14.1951 89.3878 13.9261C89.7931 13.6534 90.2514 13.517 90.7628 13.517C90.8688 13.517 90.9938 13.5208 91.1378 13.5284C91.2855 13.536 91.401 13.5455 91.4844 13.5568V15.1818C91.4162 15.1629 91.295 15.142 91.1207 15.1193C90.9465 15.0928 90.7723 15.0795 90.598 15.0795C90.1965 15.0795 89.8385 15.1648 89.5241 15.3352C89.2135 15.5019 88.9673 15.7348 88.7855 16.0341C88.6037 16.3295 88.5128 16.6667 88.5128 17.0455V22.375H86.8139ZM97.544 13.6477V15.0114H92.777V13.6477H97.544ZM94.0554 11.5568H95.7543V19.8125C95.7543 20.142 95.8035 20.3902 95.902 20.5568C96.0005 20.7197 96.1274 20.8314 96.2827 20.892C96.4418 20.9489 96.6141 20.9773 96.7997 20.9773C96.9361 20.9773 97.0554 20.9678 97.1577 20.9489C97.2599 20.9299 97.3395 20.9148 97.3963 20.9034L97.7031 22.3068C97.6046 22.3447 97.4645 22.3826 97.2827 22.4205C97.1009 22.4621 96.8736 22.4848 96.6009 22.4886C96.1539 22.4962 95.7372 22.4167 95.3509 22.25C94.9645 22.0833 94.652 21.8258 94.4134 21.4773C94.1747 21.1288 94.0554 20.6913 94.0554 20.1648V11.5568Z" fill="white"/>
<defs>
<linearGradient id="paint0_linear_550_19" x1="25.1309" y1="7.07753" x2="139.328" y2="16.1595" gradientUnits="userSpaceOnUse">
<stop stop-color="#333333"/>
<stop offset="1" stop-color="#201F1F"/>
</linearGradient>
</defs>
</svg>
