<svg width="118" height="103" viewBox="0 0 118 103" fill="none" xmlns="http://www.w3.org/2000/svg">
<path d="M38.75 16.125H1.25V102.625" stroke="white" stroke-width="2"/>
<rect x="30.6309" y="0.875" width="86.8685" height="32.25" fill="url(#paint0_linear_550_55)"/>
<rect x="27.5" y="0.875" width="6.25974" height="32.25" fill="white"/>
<path d="M55.6932 14.6477H53.9205C53.8523 14.2689 53.7254 13.9356 53.5398 13.6477C53.3542 13.3598 53.1269 13.1155 52.858 12.9148C52.589 12.714 52.2879 12.5625 51.9545 12.4602C51.625 12.358 51.2746 12.3068 50.9034 12.3068C50.233 12.3068 49.6326 12.4754 49.1023 12.8125C48.5758 13.1496 48.1591 13.6439 47.8523 14.2955C47.5492 14.947 47.3977 15.7424 47.3977 16.6818C47.3977 17.6288 47.5492 18.428 47.8523 19.0795C48.1591 19.7311 48.5777 20.2235 49.108 20.5568C49.6383 20.8902 50.2348 21.0568 50.8977 21.0568C51.2652 21.0568 51.6136 21.0076 51.9432 20.9091C52.2765 20.8068 52.5777 20.6572 52.8466 20.4602C53.1155 20.2633 53.3428 20.0227 53.5284 19.7386C53.7178 19.4508 53.8485 19.1212 53.9205 18.75L55.6932 18.7557C55.5985 19.3277 55.4148 19.8542 55.142 20.3352C54.8731 20.8125 54.5265 21.2254 54.1023 21.5739C53.6818 21.9186 53.2008 22.1856 52.6591 22.375C52.1174 22.5644 51.5265 22.6591 50.8864 22.6591C49.8788 22.6591 48.9811 22.4205 48.1932 21.9432C47.4053 21.4621 46.7841 20.7746 46.3295 19.8807C45.8788 18.9867 45.6534 17.9205 45.6534 16.6818C45.6534 15.4394 45.8807 14.3731 46.3352 13.483C46.7898 12.589 47.411 11.9034 48.1989 11.4261C48.9867 10.9451 49.8826 10.7045 50.8864 10.7045C51.5038 10.7045 52.0795 10.7936 52.6136 10.9716C53.1515 11.1458 53.6345 11.4034 54.0625 11.7443C54.4905 12.0814 54.8447 12.4943 55.125 12.983C55.4053 13.4678 55.5947 14.0227 55.6932 14.6477ZM58.7628 25.7727C58.509 25.7727 58.2779 25.7519 58.0696 25.7102C57.8613 25.6723 57.706 25.6307 57.6037 25.5852L58.0128 24.1932C58.3234 24.2765 58.5999 24.3125 58.8423 24.3011C59.0848 24.2898 59.2988 24.1989 59.4844 24.0284C59.6738 23.858 59.8404 23.5795 59.9844 23.1932L60.1946 22.6136L57.0014 13.7727H58.8196L61.0298 20.5455H61.1207L63.331 13.7727H65.1548L61.5582 23.6648C61.3916 24.1193 61.1795 24.5038 60.9219 24.8182C60.6643 25.1364 60.3575 25.375 60.0014 25.5341C59.6454 25.6932 59.2325 25.7727 58.7628 25.7727ZM66.8878 22.5V10.8636H68.5866V15.1875H68.6889C68.7874 15.0057 68.9295 14.7955 69.1151 14.5568C69.3007 14.3182 69.5582 14.1098 69.8878 13.9318C70.2173 13.75 70.6529 13.6591 71.1946 13.6591C71.8991 13.6591 72.5279 13.8371 73.081 14.1932C73.634 14.5492 74.0677 15.0625 74.3821 15.733C74.7003 16.4034 74.8594 17.2102 74.8594 18.1534C74.8594 19.0966 74.7022 19.9053 74.3878 20.5795C74.0734 21.25 73.6416 21.767 73.0923 22.1307C72.5431 22.4905 71.9162 22.6705 71.2116 22.6705C70.6813 22.6705 70.2476 22.5814 69.9105 22.4034C69.5772 22.2254 69.3158 22.017 69.1264 21.7784C68.937 21.5398 68.7912 21.3277 68.6889 21.142H68.5469V22.5H66.8878ZM68.5526 18.1364C68.5526 18.75 68.6416 19.2879 68.8196 19.75C68.9976 20.2121 69.2552 20.5739 69.5923 20.8352C69.9295 21.0928 70.3423 21.2216 70.831 21.2216C71.3385 21.2216 71.7628 21.0871 72.1037 20.8182C72.4446 20.5455 72.7022 20.1761 72.8764 19.7102C73.0545 19.2443 73.1435 18.7197 73.1435 18.1364C73.1435 17.5606 73.0563 17.0436 72.8821 16.5852C72.7116 16.1269 72.4541 15.7652 72.1094 15.5C71.7685 15.2348 71.3423 15.1023 70.831 15.1023C70.3385 15.1023 69.9219 15.2292 69.581 15.483C69.2438 15.7367 68.9882 16.0909 68.8139 16.5455C68.6397 17 68.5526 17.5303 68.5526 18.1364ZM79.3068 22.6932C78.7538 22.6932 78.2538 22.5909 77.8068 22.3864C77.3598 22.178 77.0057 21.8769 76.7443 21.483C76.4867 21.089 76.358 20.6061 76.358 20.0341C76.358 19.5417 76.4527 19.1364 76.642 18.8182C76.8314 18.5 77.0871 18.2481 77.4091 18.0625C77.7311 17.8769 78.0909 17.7367 78.4886 17.642C78.8864 17.5473 79.2917 17.4754 79.7045 17.4261C80.2273 17.3655 80.6515 17.3163 80.9773 17.2784C81.303 17.2367 81.5398 17.1705 81.6875 17.0795C81.8352 16.9886 81.9091 16.8409 81.9091 16.6364V16.5966C81.9091 16.1004 81.7689 15.7159 81.4886 15.4432C81.2121 15.1705 80.7992 15.0341 80.25 15.0341C79.678 15.0341 79.2273 15.161 78.8977 15.4148C78.572 15.6648 78.3466 15.9432 78.2216 16.25L76.625 15.8864C76.8144 15.3561 77.0909 14.928 77.4545 14.6023C77.822 14.2727 78.2443 14.0341 78.7216 13.8864C79.1989 13.7348 79.7008 13.6591 80.2273 13.6591C80.5758 13.6591 80.9451 13.7008 81.3352 13.7841C81.7292 13.8636 82.0966 14.0114 82.4375 14.2273C82.7822 14.4432 83.0644 14.7519 83.2841 15.1534C83.5038 15.5511 83.6136 16.0682 83.6136 16.7045V22.5H81.9545V21.3068H81.8864C81.7765 21.5265 81.6117 21.7424 81.392 21.9545C81.1723 22.1667 80.8902 22.3428 80.5455 22.483C80.2008 22.6231 79.7879 22.6932 79.3068 22.6932ZM79.6761 21.3295C80.1458 21.3295 80.5473 21.2367 80.8807 21.0511C81.2178 20.8655 81.4735 20.6231 81.6477 20.3239C81.8258 20.0208 81.9148 19.697 81.9148 19.3523V18.2273C81.8542 18.2879 81.7367 18.3447 81.5625 18.3977C81.392 18.447 81.197 18.4905 80.9773 18.5284C80.7576 18.5625 80.5436 18.5947 80.3352 18.625C80.1269 18.6515 79.9527 18.6742 79.8125 18.6932C79.483 18.7348 79.1818 18.8049 78.9091 18.9034C78.6402 19.0019 78.4242 19.1439 78.2614 19.3295C78.1023 19.5114 78.0227 19.7538 78.0227 20.0568C78.0227 20.4773 78.178 20.7955 78.4886 21.0114C78.7992 21.2235 79.1951 21.3295 79.6761 21.3295ZM89.5355 25.9545C88.8423 25.9545 88.2457 25.8636 87.7457 25.6818C87.2495 25.5 86.8442 25.2595 86.5298 24.9602C86.2154 24.661 85.9806 24.3333 85.8253 23.9773L87.2855 23.375C87.3878 23.5417 87.5241 23.7178 87.6946 23.9034C87.8688 24.0928 88.1037 24.2538 88.3991 24.3864C88.6984 24.5189 89.0829 24.5852 89.5526 24.5852C90.1965 24.5852 90.7287 24.428 91.1491 24.1136C91.5696 23.803 91.7798 23.3068 91.7798 22.625V20.9091H91.6719C91.5696 21.0947 91.4219 21.3011 91.2287 21.5284C91.0393 21.7557 90.7779 21.9527 90.4446 22.1193C90.1113 22.286 89.6776 22.3693 89.1435 22.3693C88.4541 22.3693 87.8329 22.2083 87.2798 21.8864C86.7306 21.5606 86.295 21.0814 85.973 20.4489C85.6548 19.8125 85.4957 19.0303 85.4957 18.1023C85.4957 17.1742 85.6529 16.3788 85.9673 15.7159C86.2855 15.053 86.7211 14.5455 87.2741 14.1932C87.8272 13.8371 88.4541 13.6591 89.1548 13.6591C89.6965 13.6591 90.134 13.75 90.4673 13.9318C90.8007 14.1098 91.0601 14.3182 91.2457 14.5568C91.4351 14.7955 91.581 15.0057 91.6832 15.1875H91.8082V13.7727H93.473V22.6932C93.473 23.4432 93.2988 24.0587 92.9503 24.5398C92.6018 25.0208 92.1302 25.3769 91.5355 25.608C90.9446 25.839 90.2779 25.9545 89.5355 25.9545ZM89.5185 20.9602C90.0071 20.9602 90.42 20.8466 90.7571 20.6193C91.098 20.3883 91.3556 20.0587 91.5298 19.6307C91.7079 19.1989 91.7969 18.6818 91.7969 18.0795C91.7969 17.4924 91.7098 16.9754 91.5355 16.5284C91.3613 16.0814 91.1056 15.733 90.7685 15.483C90.4313 15.2292 90.0147 15.1023 89.5185 15.1023C89.0071 15.1023 88.581 15.2348 88.2401 15.5C87.8991 15.7614 87.6416 16.1174 87.4673 16.5682C87.2969 17.0189 87.2116 17.5227 87.2116 18.0795C87.2116 18.6515 87.2988 19.1534 87.473 19.5852C87.6473 20.017 87.9048 20.3542 88.2457 20.5966C88.5904 20.839 89.0147 20.9602 89.5185 20.9602ZM99.5128 22.6761C98.6529 22.6761 97.9124 22.4924 97.2912 22.125C96.6738 21.7538 96.1965 21.233 95.8594 20.5625C95.526 19.8883 95.3594 19.0985 95.3594 18.1932C95.3594 17.2992 95.526 16.5114 95.8594 15.8295C96.1965 15.1477 96.6662 14.6155 97.2685 14.233C97.8745 13.8504 98.5829 13.6591 99.3935 13.6591C99.8859 13.6591 100.363 13.7405 100.825 13.9034C101.287 14.0663 101.702 14.322 102.07 14.6705C102.437 15.0189 102.727 15.4716 102.939 16.0284C103.151 16.5814 103.257 17.2538 103.257 18.0455V18.6477H96.3196V17.375H101.592C101.592 16.928 101.501 16.5322 101.32 16.1875C101.138 15.839 100.882 15.5644 100.553 15.3636C100.227 15.1629 99.8442 15.0625 99.4048 15.0625C98.9276 15.0625 98.5109 15.1799 98.1548 15.4148C97.8026 15.6458 97.5298 15.9489 97.3366 16.3239C97.1473 16.6951 97.0526 17.0985 97.0526 17.5341V18.5284C97.0526 19.1117 97.1548 19.608 97.3594 20.017C97.5677 20.4261 97.8575 20.7386 98.2287 20.9545C98.5999 21.1667 99.0336 21.2727 99.5298 21.2727C99.8518 21.2727 100.145 21.2273 100.411 21.1364C100.676 21.0417 100.905 20.9015 101.098 20.7159C101.291 20.5303 101.439 20.3011 101.541 20.0284L103.149 20.3182C103.02 20.7917 102.789 21.2064 102.456 21.5625C102.126 21.9148 101.712 22.1894 101.212 22.3864C100.715 22.5795 100.149 22.6761 99.5128 22.6761Z" fill="white"/>
<defs>
<linearGradient id="paint0_linear_550_55" x1="28.2788" y1="7.20253" x2="141.662" y2="16.1547" gradientUnits="userSpaceOnUse">
<stop stop-color="#7D7D7D"/>
<stop offset="1" stop-color="#414141"/>
</linearGradient>
</defs>
</svg>
