<svg width="130" height="85" viewBox="0 0 130 85" fill="none" xmlns="http://www.w3.org/2000/svg">
<path d="M65.125 85L65.125 31.9375" stroke="white" stroke-width="2"/>
<rect width="129.75" height="32.25" transform="matrix(1 0 0 -1 0.25 33.1875)" fill="url(#paint0_linear_583_14)"/>
<rect width="3.04963" height="129.75" transform="matrix(-4.37114e-08 1 1 4.37114e-08 0.25 30.4375)" fill="white"/>
<path d="M9.40341 10.9261H11.5341L15.2386 19.9716H15.375L19.0795 10.9261H21.2102V22.5625H19.5398V14.142H19.4318L16 22.5455H14.6136L11.1818 14.1364H11.0739V22.5625H9.40341V10.9261ZM26.1662 22.7557C25.6132 22.7557 25.1132 22.6534 24.6662 22.4489C24.2192 22.2405 23.8651 21.9394 23.6037 21.5455C23.3461 21.1515 23.2173 20.6686 23.2173 20.0966C23.2173 19.6042 23.312 19.1989 23.5014 18.8807C23.6908 18.5625 23.9465 18.3106 24.2685 18.125C24.5904 17.9394 24.9503 17.7992 25.348 17.7045C25.7457 17.6098 26.151 17.5379 26.5639 17.4886C27.0866 17.428 27.5109 17.3788 27.8366 17.3409C28.1624 17.2992 28.3991 17.233 28.5469 17.142C28.6946 17.0511 28.7685 16.9034 28.7685 16.6989V16.6591C28.7685 16.1629 28.6283 15.7784 28.348 15.5057C28.0715 15.233 27.6586 15.0966 27.1094 15.0966C26.5374 15.0966 26.0866 15.2235 25.7571 15.4773C25.4313 15.7273 25.206 16.0057 25.081 16.3125L23.4844 15.9489C23.6738 15.4186 23.9503 14.9905 24.3139 14.6648C24.6813 14.3352 25.1037 14.0966 25.581 13.9489C26.0582 13.7973 26.5601 13.7216 27.0866 13.7216C27.4351 13.7216 27.8045 13.7633 28.1946 13.8466C28.5885 13.9261 28.956 14.0739 29.2969 14.2898C29.6416 14.5057 29.9238 14.8144 30.1435 15.2159C30.3632 15.6136 30.473 16.1307 30.473 16.767V22.5625H28.8139V21.3693H28.7457C28.6359 21.589 28.4711 21.8049 28.2514 22.017C28.0317 22.2292 27.7495 22.4053 27.4048 22.5455C27.0601 22.6856 26.6473 22.7557 26.1662 22.7557ZM26.5355 21.392C27.0052 21.392 27.4067 21.2992 27.7401 21.1136C28.0772 20.928 28.3329 20.6856 28.5071 20.3864C28.6851 20.0833 28.7741 19.7595 28.7741 19.4148V18.2898C28.7135 18.3504 28.5961 18.4072 28.4219 18.4602C28.2514 18.5095 28.0563 18.553 27.8366 18.5909C27.617 18.625 27.4029 18.6572 27.1946 18.6875C26.9863 18.714 26.812 18.7367 26.6719 18.7557C26.3423 18.7973 26.0412 18.8674 25.7685 18.9659C25.4995 19.0644 25.2836 19.2064 25.1207 19.392C24.9616 19.5739 24.8821 19.8163 24.8821 20.1193C24.8821 20.5398 25.0374 20.858 25.348 21.0739C25.6586 21.286 26.0545 21.392 26.5355 21.392ZM32.7358 22.5625V13.8352H34.3778V15.2216H34.4688C34.6278 14.7519 34.9081 14.3826 35.3097 14.1136C35.715 13.8409 36.1733 13.7045 36.6847 13.7045C36.7907 13.7045 36.9157 13.7083 37.0597 13.7159C37.2074 13.7235 37.3229 13.733 37.4062 13.7443V15.3693C37.3381 15.3504 37.2169 15.3295 37.0426 15.3068C36.8684 15.2803 36.6941 15.267 36.5199 15.267C36.1184 15.267 35.7604 15.3523 35.446 15.5227C35.1354 15.6894 34.8892 15.9223 34.7074 16.2216C34.5256 16.517 34.4347 16.8542 34.4347 17.233V22.5625H32.7358ZM38.8764 22.5625V13.8352H40.5185V15.2216H40.6094C40.7685 14.7519 41.0488 14.3826 41.4503 14.1136C41.8556 13.8409 42.3139 13.7045 42.8253 13.7045C42.9313 13.7045 43.0563 13.7083 43.2003 13.7159C43.348 13.7235 43.4635 13.733 43.5469 13.7443V15.3693C43.4787 15.3504 43.3575 15.3295 43.1832 15.3068C43.009 15.2803 42.8348 15.267 42.6605 15.267C42.259 15.267 41.901 15.3523 41.5866 15.5227C41.276 15.6894 41.0298 15.9223 40.848 16.2216C40.6662 16.517 40.5753 16.8542 40.5753 17.233V22.5625H38.8764ZM45.017 22.5625V13.8352H46.7159V22.5625H45.017ZM45.875 12.4886C45.5795 12.4886 45.3258 12.3902 45.1136 12.1932C44.9053 11.9924 44.8011 11.7538 44.8011 11.4773C44.8011 11.197 44.9053 10.9583 45.1136 10.7614C45.3258 10.5606 45.5795 10.4602 45.875 10.4602C46.1705 10.4602 46.4223 10.5606 46.6307 10.7614C46.8428 10.9583 46.9489 11.197 46.9489 11.4773C46.9489 11.7538 46.8428 11.9924 46.6307 12.1932C46.4223 12.3902 46.1705 12.4886 45.875 12.4886ZM52.6776 22.7386C51.8594 22.7386 51.1454 22.5511 50.5355 22.1761C49.9257 21.8011 49.4522 21.2765 49.1151 20.6023C48.7779 19.928 48.6094 19.1402 48.6094 18.2386C48.6094 17.3333 48.7779 16.5417 49.1151 15.8636C49.4522 15.1856 49.9257 14.6591 50.5355 14.2841C51.1454 13.9091 51.8594 13.7216 52.6776 13.7216C53.4957 13.7216 54.2098 13.9091 54.8196 14.2841C55.4295 14.6591 55.9029 15.1856 56.2401 15.8636C56.5772 16.5417 56.7457 17.3333 56.7457 18.2386C56.7457 19.1402 56.5772 19.928 56.2401 20.6023C55.9029 21.2765 55.4295 21.8011 54.8196 22.1761C54.2098 22.5511 53.4957 22.7386 52.6776 22.7386ZM52.6832 21.3125C53.2135 21.3125 53.6529 21.1723 54.0014 20.892C54.3499 20.6117 54.6075 20.2386 54.7741 19.7727C54.9446 19.3068 55.0298 18.7936 55.0298 18.233C55.0298 17.6761 54.9446 17.1648 54.7741 16.6989C54.6075 16.2292 54.3499 15.8523 54.0014 15.5682C53.6529 15.2841 53.2135 15.142 52.6832 15.142C52.1491 15.142 51.706 15.2841 51.3537 15.5682C51.0052 15.8523 50.7457 16.2292 50.5753 16.6989C50.4086 17.1648 50.3253 17.6761 50.3253 18.233C50.3253 18.7936 50.4086 19.3068 50.5753 19.7727C50.7457 20.2386 51.0052 20.6117 51.3537 20.892C51.706 21.1723 52.1491 21.3125 52.6832 21.3125ZM62.7159 13.8352V15.1989H57.9489V13.8352H62.7159ZM59.2273 11.7443H60.9261V20C60.9261 20.3295 60.9754 20.5777 61.0739 20.7443C61.1723 20.9072 61.2992 21.0189 61.4545 21.0795C61.6136 21.1364 61.786 21.1648 61.9716 21.1648C62.108 21.1648 62.2273 21.1553 62.3295 21.1364C62.4318 21.1174 62.5114 21.1023 62.5682 21.0909L62.875 22.4943C62.7765 22.5322 62.6364 22.5701 62.4545 22.608C62.2727 22.6496 62.0455 22.6723 61.7727 22.6761C61.3258 22.6837 60.9091 22.6042 60.5227 22.4375C60.1364 22.2708 59.8239 22.0133 59.5852 21.6648C59.3466 21.3163 59.2273 20.8788 59.2273 20.3523V11.7443ZM68.669 13.8352V15.1989H63.902V13.8352H68.669ZM65.1804 11.7443H66.8793V20C66.8793 20.3295 66.9285 20.5777 67.027 20.7443C67.1255 20.9072 67.2524 21.0189 67.4077 21.0795C67.5668 21.1364 67.7391 21.1648 67.9247 21.1648C68.0611 21.1648 68.1804 21.1553 68.2827 21.1364C68.3849 21.1174 68.4645 21.1023 68.5213 21.0909L68.8281 22.4943C68.7296 22.5322 68.5895 22.5701 68.4077 22.608C68.2259 22.6496 67.9986 22.6723 67.7259 22.6761C67.2789 22.6837 66.8622 22.6042 66.4759 22.4375C66.0895 22.2708 65.777 22.0133 65.5384 21.6648C65.2997 21.3163 65.1804 20.8788 65.1804 20.3523V11.7443ZM81.2656 13.983C81.205 13.4451 80.955 13.0284 80.5156 12.733C80.0762 12.4337 79.5232 12.2841 78.8565 12.2841C78.3793 12.2841 77.9664 12.3598 77.6179 12.5114C77.2694 12.6591 76.9986 12.8636 76.8054 13.125C76.616 13.3826 76.5213 13.6761 76.5213 14.0057C76.5213 14.2822 76.5857 14.5208 76.7145 14.7216C76.8471 14.9223 77.0194 15.0909 77.2315 15.2273C77.4474 15.3598 77.6785 15.4716 77.9247 15.5625C78.1709 15.6496 78.4077 15.7216 78.6349 15.7784L79.7713 16.0739C80.1425 16.1648 80.5232 16.2879 80.9134 16.4432C81.3035 16.5985 81.6652 16.803 81.9986 17.0568C82.3319 17.3106 82.6009 17.625 82.8054 18C83.0137 18.375 83.1179 18.8239 83.1179 19.3466C83.1179 20.0057 82.9474 20.5909 82.6065 21.1023C82.2694 21.6136 81.7789 22.017 81.1349 22.3125C80.4948 22.608 79.7202 22.7557 78.8111 22.7557C77.9399 22.7557 77.1861 22.6174 76.5497 22.3409C75.9134 22.0644 75.4152 21.6723 75.0554 21.1648C74.6955 20.6534 74.4967 20.0473 74.4588 19.3466H76.2202C76.2543 19.767 76.3906 20.1174 76.6293 20.3977C76.8717 20.6742 77.1804 20.8807 77.5554 21.017C77.9342 21.1496 78.349 21.2159 78.7997 21.2159C79.2959 21.2159 79.7372 21.1383 80.1236 20.983C80.5137 20.8239 80.8205 20.6042 81.044 20.3239C81.2675 20.0398 81.3793 19.7083 81.3793 19.3295C81.3793 18.9848 81.2808 18.7027 81.0838 18.483C80.8906 18.2633 80.6274 18.0814 80.294 17.9375C79.9645 17.7936 79.5914 17.6667 79.1747 17.5568L77.7997 17.1818C76.8679 16.928 76.1293 16.5549 75.5838 16.0625C75.0421 15.5701 74.7713 14.9186 74.7713 14.108C74.7713 13.4375 74.9531 12.8523 75.3168 12.3523C75.6804 11.8523 76.1728 11.464 76.794 11.1875C77.4152 10.9072 78.116 10.767 78.8963 10.767C79.6842 10.767 80.3793 10.9053 80.9815 11.1818C81.5876 11.4583 82.0649 11.839 82.4134 12.3239C82.7618 12.8049 82.9437 13.358 82.9588 13.983H81.2656ZM90.608 18.9432V13.8352H92.3125V22.5625H90.642V21.0511H90.5511C90.3504 21.517 90.0284 21.9053 89.5852 22.2159C89.1458 22.5227 88.5985 22.6761 87.9432 22.6761C87.3826 22.6761 86.8864 22.553 86.4545 22.3068C86.0265 22.0568 85.6894 21.6875 85.4432 21.1989C85.2008 20.7102 85.0795 20.1061 85.0795 19.3864V13.8352H86.7784V19.1818C86.7784 19.7765 86.9432 20.25 87.2727 20.6023C87.6023 20.9545 88.0303 21.1307 88.5568 21.1307C88.875 21.1307 89.1913 21.0511 89.5057 20.892C89.8239 20.733 90.0871 20.4924 90.2955 20.1705C90.5076 19.8485 90.6117 19.4394 90.608 18.9432ZM94.5952 22.5625V13.8352H96.294V22.5625H94.5952ZM95.4531 12.4886C95.1577 12.4886 94.9039 12.3902 94.6918 12.1932C94.4834 11.9924 94.3793 11.7538 94.3793 11.4773C94.3793 11.197 94.4834 10.9583 94.6918 10.7614C94.9039 10.5606 95.1577 10.4602 95.4531 10.4602C95.7486 10.4602 96.0005 10.5606 96.2088 10.7614C96.4209 10.9583 96.527 11.197 96.527 11.4773C96.527 11.7538 96.4209 11.9924 96.2088 12.1932C96.0005 12.3902 95.7486 12.4886 95.4531 12.4886ZM102.653 13.8352V15.1989H97.8864V13.8352H102.653ZM99.1648 11.7443H100.864V20C100.864 20.3295 100.913 20.5777 101.011 20.7443C101.11 20.9072 101.237 21.0189 101.392 21.0795C101.551 21.1364 101.723 21.1648 101.909 21.1648C102.045 21.1648 102.165 21.1553 102.267 21.1364C102.369 21.1174 102.449 21.1023 102.506 21.0909L102.812 22.4943C102.714 22.5322 102.574 22.5701 102.392 22.608C102.21 22.6496 101.983 22.6723 101.71 22.6761C101.263 22.6837 100.847 22.6042 100.46 22.4375C100.074 22.2708 99.7614 22.0133 99.5227 21.6648C99.2841 21.3163 99.1648 20.8788 99.1648 20.3523V11.7443ZM108.2 22.7386C107.34 22.7386 106.6 22.5549 105.979 22.1875C105.361 21.8163 104.884 21.2955 104.547 20.625C104.214 19.9508 104.047 19.161 104.047 18.2557C104.047 17.3617 104.214 16.5739 104.547 15.892C104.884 15.2102 105.354 14.678 105.956 14.2955C106.562 13.9129 107.27 13.7216 108.081 13.7216C108.573 13.7216 109.051 13.803 109.513 13.9659C109.975 14.1288 110.39 14.3845 110.757 14.733C111.125 15.0814 111.414 15.5341 111.626 16.0909C111.839 16.6439 111.945 17.3163 111.945 18.108V18.7102H105.007V17.4375H110.28C110.28 16.9905 110.189 16.5947 110.007 16.25C109.825 15.9015 109.57 15.6269 109.24 15.4261C108.914 15.2254 108.532 15.125 108.092 15.125C107.615 15.125 107.198 15.2424 106.842 15.4773C106.49 15.7083 106.217 16.0114 106.024 16.3864C105.835 16.7576 105.74 17.161 105.74 17.5966V18.5909C105.74 19.1742 105.842 19.6705 106.047 20.0795C106.255 20.4886 106.545 20.8011 106.916 21.017C107.287 21.2292 107.721 21.3352 108.217 21.3352C108.539 21.3352 108.833 21.2898 109.098 21.1989C109.363 21.1042 109.592 20.964 109.786 20.7784C109.979 20.5928 110.126 20.3636 110.229 20.0909L111.837 20.3807C111.708 20.8542 111.477 21.2689 111.143 21.625C110.814 21.9773 110.399 22.2519 109.899 22.4489C109.403 22.642 108.837 22.7386 108.2 22.7386ZM120.369 15.9659L118.83 16.2386C118.765 16.0417 118.663 15.8542 118.523 15.6761C118.386 15.4981 118.201 15.3523 117.966 15.2386C117.731 15.125 117.438 15.0682 117.085 15.0682C116.604 15.0682 116.203 15.1761 115.881 15.392C115.559 15.6042 115.398 15.8788 115.398 16.2159C115.398 16.5076 115.506 16.7424 115.722 16.9205C115.938 17.0985 116.286 17.2443 116.767 17.358L118.153 17.6761C118.956 17.8617 119.555 18.1477 119.949 18.5341C120.343 18.9205 120.54 19.4223 120.54 20.0398C120.54 20.5625 120.388 21.0284 120.085 21.4375C119.786 21.8428 119.367 22.161 118.83 22.392C118.295 22.6231 117.676 22.7386 116.972 22.7386C115.994 22.7386 115.197 22.5303 114.58 22.1136C113.962 21.6932 113.583 21.0966 113.443 20.3239L115.085 20.0739C115.188 20.5019 115.398 20.8258 115.716 21.0455C116.034 21.2614 116.449 21.3693 116.96 21.3693C117.517 21.3693 117.962 21.2538 118.295 21.0227C118.629 20.7879 118.795 20.5019 118.795 20.1648C118.795 19.892 118.693 19.6629 118.489 19.4773C118.288 19.2917 117.979 19.1515 117.562 19.0568L116.085 18.733C115.271 18.5473 114.669 18.2519 114.278 17.8466C113.892 17.4413 113.699 16.928 113.699 16.3068C113.699 15.7917 113.843 15.3409 114.131 14.9545C114.419 14.5682 114.816 14.267 115.324 14.0511C115.831 13.8314 116.413 13.7216 117.068 13.7216C118.011 13.7216 118.754 13.9261 119.295 14.3352C119.837 14.7405 120.195 15.2841 120.369 15.9659Z" fill="white"/>
<defs>
<linearGradient id="paint0_linear_583_14" x1="-3.51309" y1="6.32753" x2="164.559" y2="26.1482" gradientUnits="userSpaceOnUse">
<stop stop-color="#333333"/>
<stop offset="1" stop-color="#201F1F"/>
</linearGradient>
</defs>
</svg>
