<svg width="165" height="102" viewBox="0 0 165 102" fill="none" xmlns="http://www.w3.org/2000/svg">
<path d="M126.25 15.5H163.75V102" stroke="white" stroke-width="2"/>
<rect width="137" height="32.25" transform="matrix(-1 0 0 1 137.5 0.25)" fill="url(#paint0_linear_550_25)"/>
<rect width="5.84919" height="32.25" transform="matrix(-1 0 0 1 137.5 0.25)" fill="white"/>
<path d="M16.0114 21.875H14.1477L18.3352 10.2386H20.3636L24.5511 21.875H22.6875L19.3977 12.3523H19.3068L16.0114 21.875ZM16.3239 17.3182H22.3693V18.7955H16.3239V17.3182ZM26.0952 21.875V13.1477H27.7259V14.5682H27.8338C28.0156 14.0871 28.313 13.7121 28.7259 13.4432C29.1387 13.1705 29.633 13.0341 30.2088 13.0341C30.7921 13.0341 31.2808 13.1705 31.6747 13.4432C32.0724 13.7159 32.366 14.0909 32.5554 14.5682H32.6463C32.8546 14.1023 33.1861 13.7311 33.6406 13.4545C34.0952 13.1742 34.6368 13.0341 35.2656 13.0341C36.0573 13.0341 36.7031 13.2822 37.2031 13.7784C37.7069 14.2746 37.9588 15.0227 37.9588 16.0227V21.875H36.2599V16.1818C36.2599 15.5909 36.099 15.1629 35.777 14.8977C35.455 14.6326 35.0705 14.5 34.6236 14.5C34.0705 14.5 33.6406 14.6705 33.3338 15.0114C33.027 15.3485 32.8736 15.7822 32.8736 16.3125V21.875H31.1804V16.0739C31.1804 15.6004 31.0327 15.2197 30.7372 14.9318C30.4418 14.6439 30.0573 14.5 29.5838 14.5C29.2618 14.5 28.9645 14.5852 28.6918 14.7557C28.4228 14.9223 28.205 15.1553 28.0384 15.4545C27.8755 15.7538 27.794 16.1004 27.794 16.4943V21.875H26.0952ZM42.7756 22.0682C42.2225 22.0682 41.7225 21.9659 41.2756 21.7614C40.8286 21.553 40.4744 21.2519 40.2131 20.858C39.9555 20.464 39.8267 19.9811 39.8267 19.4091C39.8267 18.9167 39.9214 18.5114 40.1108 18.1932C40.3002 17.875 40.5559 17.6231 40.8778 17.4375C41.1998 17.2519 41.5597 17.1117 41.9574 17.017C42.3551 16.9223 42.7604 16.8504 43.1733 16.8011C43.696 16.7405 44.1203 16.6913 44.446 16.6534C44.7718 16.6117 45.0085 16.5455 45.1562 16.4545C45.304 16.3636 45.3778 16.2159 45.3778 16.0114V15.9716C45.3778 15.4754 45.2377 15.0909 44.9574 14.8182C44.6809 14.5455 44.268 14.4091 43.7188 14.4091C43.1468 14.4091 42.696 14.536 42.3665 14.7898C42.0407 15.0398 41.8153 15.3182 41.6903 15.625L40.0938 15.2614C40.2831 14.7311 40.5597 14.303 40.9233 13.9773C41.2907 13.6477 41.7131 13.4091 42.1903 13.2614C42.6676 13.1098 43.1695 13.0341 43.696 13.0341C44.0445 13.0341 44.4138 13.0758 44.804 13.1591C45.1979 13.2386 45.5653 13.3864 45.9062 13.6023C46.2509 13.8182 46.5331 14.1269 46.7528 14.5284C46.9725 14.9261 47.0824 15.4432 47.0824 16.0795V21.875H45.4233V20.6818H45.3551C45.2453 20.9015 45.0805 21.1174 44.8608 21.3295C44.6411 21.5417 44.3589 21.7178 44.0142 21.858C43.6695 21.9981 43.2566 22.0682 42.7756 22.0682ZM43.1449 20.7045C43.6146 20.7045 44.0161 20.6117 44.3494 20.4261C44.6866 20.2405 44.9422 19.9981 45.1165 19.6989C45.2945 19.3958 45.3835 19.072 45.3835 18.7273V17.6023C45.3229 17.6629 45.2055 17.7197 45.0312 17.7727C44.8608 17.822 44.6657 17.8655 44.446 17.9034C44.2263 17.9375 44.0123 17.9697 43.804 18C43.5956 18.0265 43.4214 18.0492 43.2812 18.0682C42.9517 18.1098 42.6506 18.1799 42.3778 18.2784C42.1089 18.3769 41.893 18.5189 41.7301 18.7045C41.571 18.8864 41.4915 19.1288 41.4915 19.4318C41.4915 19.8523 41.6468 20.1705 41.9574 20.3864C42.268 20.5985 42.6638 20.7045 43.1449 20.7045ZM51.044 16.6932V21.875H49.3452V13.1477H50.9759V14.5682H51.0838C51.2846 14.1061 51.599 13.7348 52.027 13.4545C52.4588 13.1742 53.0024 13.0341 53.6577 13.0341C54.2524 13.0341 54.7732 13.1591 55.2202 13.4091C55.6671 13.6553 56.0137 14.0227 56.2599 14.5114C56.5062 15 56.6293 15.6042 56.6293 16.3239V21.875H54.9304V16.5284C54.9304 15.8958 54.7656 15.4015 54.4361 15.0455C54.1065 14.6856 53.6539 14.5057 53.0781 14.5057C52.6842 14.5057 52.3338 14.5909 52.027 14.7614C51.724 14.9318 51.4834 15.1818 51.3054 15.5114C51.1312 15.8371 51.044 16.2311 51.044 16.6932ZM62.5838 22.0511C61.7656 22.0511 61.0516 21.8636 60.4418 21.4886C59.8319 21.1136 59.3584 20.589 59.0213 19.9148C58.6842 19.2405 58.5156 18.4527 58.5156 17.5511C58.5156 16.6458 58.6842 15.8542 59.0213 15.1761C59.3584 14.4981 59.8319 13.9716 60.4418 13.5966C61.0516 13.2216 61.7656 13.0341 62.5838 13.0341C63.402 13.0341 64.116 13.2216 64.7259 13.5966C65.3357 13.9716 65.8092 14.4981 66.1463 15.1761C66.4834 15.8542 66.652 16.6458 66.652 17.5511C66.652 18.4527 66.4834 19.2405 66.1463 19.9148C65.8092 20.589 65.3357 21.1136 64.7259 21.4886C64.116 21.8636 63.402 22.0511 62.5838 22.0511ZM62.5895 20.625C63.1198 20.625 63.5592 20.4848 63.9077 20.2045C64.2562 19.9242 64.5137 19.5511 64.6804 19.0852C64.8509 18.6193 64.9361 18.1061 64.9361 17.5455C64.9361 16.9886 64.8509 16.4773 64.6804 16.0114C64.5137 15.5417 64.2562 15.1648 63.9077 14.8807C63.5592 14.5966 63.1198 14.4545 62.5895 14.4545C62.0554 14.4545 61.6122 14.5966 61.2599 14.8807C60.9115 15.1648 60.652 15.5417 60.4815 16.0114C60.3149 16.4773 60.2315 16.9886 60.2315 17.5455C60.2315 18.1061 60.3149 18.6193 60.4815 19.0852C60.652 19.5511 60.9115 19.9242 61.2599 20.2045C61.6122 20.4848 62.0554 20.625 62.5895 20.625ZM68.5483 21.875V13.1477H70.1903V14.5341H70.2812C70.4403 14.0644 70.7206 13.6951 71.1222 13.4261C71.5275 13.1534 71.9858 13.017 72.4972 13.017C72.6032 13.017 72.7282 13.0208 72.8722 13.0284C73.0199 13.036 73.1354 13.0455 73.2188 13.0568V14.6818C73.1506 14.6629 73.0294 14.642 72.8551 14.6193C72.6809 14.5928 72.5066 14.5795 72.3324 14.5795C71.9309 14.5795 71.5729 14.6648 71.2585 14.8352C70.9479 15.0019 70.7017 15.2348 70.5199 15.5341C70.3381 15.8295 70.2472 16.1667 70.2472 16.5455V21.875H68.5483ZM77.1506 22.0682C76.5975 22.0682 76.0975 21.9659 75.6506 21.7614C75.2036 21.553 74.8494 21.2519 74.5881 20.858C74.3305 20.464 74.2017 19.9811 74.2017 19.4091C74.2017 18.9167 74.2964 18.5114 74.4858 18.1932C74.6752 17.875 74.9309 17.6231 75.2528 17.4375C75.5748 17.2519 75.9347 17.1117 76.3324 17.017C76.7301 16.9223 77.1354 16.8504 77.5483 16.8011C78.071 16.7405 78.4953 16.6913 78.821 16.6534C79.1468 16.6117 79.3835 16.5455 79.5312 16.4545C79.679 16.3636 79.7528 16.2159 79.7528 16.0114V15.9716C79.7528 15.4754 79.6127 15.0909 79.3324 14.8182C79.0559 14.5455 78.643 14.4091 78.0938 14.4091C77.5218 14.4091 77.071 14.536 76.7415 14.7898C76.4157 15.0398 76.1903 15.3182 76.0653 15.625L74.4688 15.2614C74.6581 14.7311 74.9347 14.303 75.2983 13.9773C75.6657 13.6477 76.0881 13.4091 76.5653 13.2614C77.0426 13.1098 77.5445 13.0341 78.071 13.0341C78.4195 13.0341 78.7888 13.0758 79.179 13.1591C79.5729 13.2386 79.9403 13.3864 80.2812 13.6023C80.6259 13.8182 80.9081 14.1269 81.1278 14.5284C81.3475 14.9261 81.4574 15.4432 81.4574 16.0795V21.875H79.7983V20.6818H79.7301C79.6203 20.9015 79.4555 21.1174 79.2358 21.3295C79.0161 21.5417 78.7339 21.7178 78.3892 21.858C78.0445 21.9981 77.6316 22.0682 77.1506 22.0682ZM77.5199 20.7045C77.9896 20.7045 78.3911 20.6117 78.7244 20.4261C79.0616 20.2405 79.3172 19.9981 79.4915 19.6989C79.6695 19.3958 79.7585 19.072 79.7585 18.7273V17.6023C79.6979 17.6629 79.5805 17.7197 79.4062 17.7727C79.2358 17.822 79.0407 17.8655 78.821 17.9034C78.6013 17.9375 78.3873 17.9697 78.179 18C77.9706 18.0265 77.7964 18.0492 77.6562 18.0682C77.3267 18.1098 77.0256 18.1799 76.7528 18.2784C76.4839 18.3769 76.268 18.5189 76.1051 18.7045C75.946 18.8864 75.8665 19.1288 75.8665 19.4318C75.8665 19.8523 76.0218 20.1705 76.3324 20.3864C76.643 20.5985 77.0388 20.7045 77.5199 20.7045ZM88.0909 10.2386H90.2216L93.9261 19.2841H94.0625L97.767 10.2386H99.8977V21.875H98.2273V13.4545H98.1193L94.6875 21.858H93.3011L89.8693 13.4489H89.7614V21.875H88.0909V10.2386ZM104.854 22.0682C104.301 22.0682 103.801 21.9659 103.354 21.7614C102.907 21.553 102.553 21.2519 102.291 20.858C102.034 20.464 101.905 19.9811 101.905 19.4091C101.905 18.9167 102 18.5114 102.189 18.1932C102.378 17.875 102.634 17.6231 102.956 17.4375C103.278 17.2519 103.638 17.1117 104.036 17.017C104.433 16.9223 104.839 16.8504 105.251 16.8011C105.774 16.7405 106.198 16.6913 106.524 16.6534C106.85 16.6117 107.087 16.5455 107.234 16.4545C107.382 16.3636 107.456 16.2159 107.456 16.0114V15.9716C107.456 15.4754 107.316 15.0909 107.036 14.8182C106.759 14.5455 106.346 14.4091 105.797 14.4091C105.225 14.4091 104.774 14.536 104.445 14.7898C104.119 15.0398 103.893 15.3182 103.768 15.625L102.172 15.2614C102.361 14.7311 102.638 14.303 103.001 13.9773C103.369 13.6477 103.791 13.4091 104.268 13.2614C104.746 13.1098 105.248 13.0341 105.774 13.0341C106.123 13.0341 106.492 13.0758 106.882 13.1591C107.276 13.2386 107.643 13.3864 107.984 13.6023C108.329 13.8182 108.611 14.1269 108.831 14.5284C109.051 14.9261 109.161 15.4432 109.161 16.0795V21.875H107.501V20.6818H107.433C107.323 20.9015 107.159 21.1174 106.939 21.3295C106.719 21.5417 106.437 21.7178 106.092 21.858C105.748 21.9981 105.335 22.0682 104.854 22.0682ZM105.223 20.7045C105.693 20.7045 106.094 20.6117 106.428 20.4261C106.765 20.2405 107.02 19.9981 107.195 19.6989C107.373 19.3958 107.462 19.072 107.462 18.7273V17.6023C107.401 17.6629 107.284 17.7197 107.109 17.7727C106.939 17.822 106.744 17.8655 106.524 17.9034C106.304 17.9375 106.09 17.9697 105.882 18C105.674 18.0265 105.5 18.0492 105.359 18.0682C105.03 18.1098 104.729 18.1799 104.456 18.2784C104.187 18.3769 103.971 18.5189 103.808 18.7045C103.649 18.8864 103.57 19.1288 103.57 19.4318C103.57 19.8523 103.725 20.1705 104.036 20.3864C104.346 20.5985 104.742 20.7045 105.223 20.7045ZM113.122 10.2386V21.875H111.423V10.2386H113.122ZM117.107 10.2386V21.875H115.408V10.2386H117.107Z" fill="white"/>
<defs>
<linearGradient id="paint0_linear_550_25" x1="-3.70939" y1="6.32753" x2="173.475" y2="28.3904" gradientUnits="userSpaceOnUse">
<stop stop-color="#333333"/>
<stop offset="1" stop-color="#201F1F"/>
</linearGradient>
</defs>
</svg>
