<svg width="322" height="119" viewBox="0 0 322 119" fill="none" xmlns="http://www.w3.org/2000/svg">
<path d="M181 15.4375H218.5L321.031 117.969" stroke="white" stroke-width="2"/>
<rect width="191.5" height="32.25" transform="matrix(-1 0 0 1 192.25 0.1875)" fill="url(#paint0_linear_550_37)"/>
<rect width="5.84919" height="32.25" transform="matrix(-1 0 0 1 192.25 0.1875)" fill="white"/>
<path d="M15.7711 21.8125H13.9075L18.095 10.1761H20.1234L24.3109 21.8125H22.4473L19.1575 12.2898H19.0666L15.7711 21.8125ZM16.0836 17.2557H22.1291V18.733H16.0836V17.2557ZM25.8549 21.8125V13.0852H27.497V14.4716H27.5879C27.747 14.0019 28.0273 13.6326 28.4288 13.3636C28.8341 13.0909 29.2924 12.9545 29.8038 12.9545C29.9099 12.9545 30.0349 12.9583 30.1788 12.9659C30.3265 12.9735 30.4421 12.983 30.5254 12.9943V14.6193C30.4572 14.6004 30.336 14.5795 30.1618 14.5568C29.9875 14.5303 29.8133 14.517 29.639 14.517C29.2375 14.517 28.8796 14.6023 28.5652 14.7727C28.2546 14.9394 28.0083 15.1723 27.8265 15.4716C27.6447 15.767 27.5538 16.1042 27.5538 16.483V21.8125H25.8549ZM31.9956 21.8125V13.0852H33.6262V14.5057H33.7342C33.916 14.0246 34.2134 13.6496 34.6262 13.3807C35.0391 13.108 35.5334 12.9716 36.1092 12.9716C36.6925 12.9716 37.1812 13.108 37.5751 13.3807C37.9728 13.6534 38.2664 14.0284 38.4558 14.5057H38.5467C38.755 14.0398 39.0865 13.6686 39.541 13.392C39.9956 13.1117 40.5372 12.9716 41.166 12.9716C41.9577 12.9716 42.6035 13.2197 43.1035 13.7159C43.6073 14.2121 43.8592 14.9602 43.8592 15.9602V21.8125H42.1603V16.1193C42.1603 15.5284 41.9993 15.1004 41.6774 14.8352C41.3554 14.5701 40.9709 14.4375 40.524 14.4375C39.9709 14.4375 39.541 14.608 39.2342 14.9489C38.9274 15.286 38.774 15.7197 38.774 16.25V21.8125H37.0808V16.0114C37.0808 15.5379 36.9331 15.1572 36.6376 14.8693C36.3422 14.5814 35.9577 14.4375 35.4842 14.4375C35.1622 14.4375 34.8649 14.5227 34.5922 14.6932C34.3232 14.8598 34.1054 15.0928 33.9387 15.392C33.7759 15.6913 33.6944 16.0379 33.6944 16.4318V21.8125H31.9956ZM46.8975 25.0852C46.6438 25.0852 46.4127 25.0644 46.2044 25.0227C45.996 24.9848 45.8407 24.9432 45.7385 24.8977L46.1475 23.5057C46.4582 23.589 46.7347 23.625 46.9771 23.6136C47.2195 23.6023 47.4335 23.5114 47.6191 23.3409C47.8085 23.1705 47.9752 22.892 48.1191 22.5057L48.3294 21.9261L45.1362 13.0852H46.9544L49.1646 19.858H49.2555L51.4657 13.0852H53.2896L49.693 22.9773C49.5263 23.4318 49.3142 23.8163 49.0566 24.1307C48.7991 24.4489 48.4922 24.6875 48.1362 24.8466C47.7801 25.0057 47.3672 25.0852 46.8975 25.0852ZM65.6035 13.233C65.5429 12.6951 65.2929 12.2784 64.8535 11.983C64.4141 11.6837 63.8611 11.5341 63.1944 11.5341C62.7172 11.5341 62.3043 11.6098 61.9558 11.7614C61.6073 11.9091 61.3365 12.1136 61.1433 12.375C60.9539 12.6326 60.8592 12.9261 60.8592 13.2557C60.8592 13.5322 60.9236 13.7708 61.0524 13.9716C61.185 14.1723 61.3573 14.3409 61.5694 14.4773C61.7853 14.6098 62.0164 14.7216 62.2626 14.8125C62.5088 14.8996 62.7456 14.9716 62.9728 15.0284L64.1092 15.3239C64.4804 15.4148 64.8611 15.5379 65.2512 15.6932C65.6414 15.8485 66.0031 16.053 66.3365 16.3068C66.6698 16.5606 66.9387 16.875 67.1433 17.25C67.3516 17.625 67.4558 18.0739 67.4558 18.5966C67.4558 19.2557 67.2853 19.8409 66.9444 20.3523C66.6073 20.8636 66.1168 21.267 65.4728 21.5625C64.8327 21.858 64.0581 22.0057 63.149 22.0057C62.2778 22.0057 61.524 21.8674 60.8876 21.5909C60.2512 21.3144 59.7531 20.9223 59.3933 20.4148C59.0334 19.9034 58.8346 19.2973 58.7967 18.5966H60.5581C60.5922 19.017 60.7285 19.3674 60.9672 19.6477C61.2096 19.9242 61.5183 20.1307 61.8933 20.267C62.2721 20.3996 62.6868 20.4659 63.1376 20.4659C63.6338 20.4659 64.0751 20.3883 64.4615 20.233C64.8516 20.0739 65.1584 19.8542 65.3819 19.5739C65.6054 19.2898 65.7172 18.9583 65.7172 18.5795C65.7172 18.2348 65.6187 17.9527 65.4217 17.733C65.2285 17.5133 64.9653 17.3314 64.6319 17.1875C64.3024 17.0436 63.9293 16.9167 63.5126 16.8068L62.1376 16.4318C61.2058 16.178 60.4672 15.8049 59.9217 15.3125C59.38 14.8201 59.1092 14.1686 59.1092 13.358C59.1092 12.6875 59.291 12.1023 59.6547 11.6023C60.0183 11.1023 60.5107 10.714 61.1319 10.4375C61.7531 10.1572 62.4539 10.017 63.2342 10.017C64.0221 10.017 64.7172 10.1553 65.3194 10.4318C65.9255 10.7083 66.4028 11.089 66.7512 11.5739C67.0997 12.0549 67.2815 12.608 67.2967 13.233H65.6035ZM69.4174 25.0852V13.0852H71.0765V14.5H71.2186C71.3171 14.3182 71.4591 14.108 71.6447 13.8693C71.8303 13.6307 72.0879 13.4223 72.4174 13.2443C72.747 13.0625 73.1826 12.9716 73.7243 12.9716C74.4288 12.9716 75.0576 13.1496 75.6106 13.5057C76.1636 13.8617 76.5974 14.375 76.9118 15.0455C77.2299 15.7159 77.389 16.5227 77.389 17.4659C77.389 18.4091 77.2318 19.2178 76.9174 19.892C76.603 20.5625 76.1712 21.0795 75.622 21.4432C75.0727 21.803 74.4458 21.983 73.7413 21.983C73.211 21.983 72.7773 21.8939 72.4402 21.7159C72.1068 21.5379 71.8455 21.3295 71.6561 21.0909C71.4667 20.8523 71.3208 20.6402 71.2186 20.4545H71.1163V25.0852H69.4174ZM71.0822 17.4489C71.0822 18.0625 71.1712 18.6004 71.3493 19.0625C71.5273 19.5246 71.7849 19.8864 72.122 20.1477C72.4591 20.4053 72.872 20.5341 73.3606 20.5341C73.8682 20.5341 74.2924 20.3996 74.6333 20.1307C74.9743 19.858 75.2318 19.4886 75.4061 19.0227C75.5841 18.5568 75.6731 18.0322 75.6731 17.4489C75.6731 16.8731 75.586 16.3561 75.4118 15.8977C75.2413 15.4394 74.9837 15.0777 74.639 14.8125C74.2981 14.5473 73.872 14.4148 73.3606 14.4148C72.8682 14.4148 72.4515 14.5417 72.1106 14.7955C71.7735 15.0492 71.5178 15.4034 71.3436 15.858C71.1693 16.3125 71.0822 16.8428 71.0822 17.4489ZM82.9686 21.9886C82.1504 21.9886 81.4364 21.8011 80.8265 21.4261C80.2167 21.0511 79.7432 20.5265 79.4061 19.8523C79.069 19.178 78.9004 18.3902 78.9004 17.4886C78.9004 16.5833 79.069 15.7917 79.4061 15.1136C79.7432 14.4356 80.2167 13.9091 80.8265 13.5341C81.4364 13.1591 82.1504 12.9716 82.9686 12.9716C83.7868 12.9716 84.5008 13.1591 85.1106 13.5341C85.7205 13.9091 86.194 14.4356 86.5311 15.1136C86.8682 15.7917 87.0368 16.5833 87.0368 17.4886C87.0368 18.3902 86.8682 19.178 86.5311 19.8523C86.194 20.5265 85.7205 21.0511 85.1106 21.4261C84.5008 21.8011 83.7868 21.9886 82.9686 21.9886ZM82.9743 20.5625C83.5046 20.5625 83.944 20.4223 84.2924 20.142C84.6409 19.8617 84.8985 19.4886 85.0652 19.0227C85.2356 18.5568 85.3208 18.0436 85.3208 17.483C85.3208 16.9261 85.2356 16.4148 85.0652 15.9489C84.8985 15.4792 84.6409 15.1023 84.2924 14.8182C83.944 14.5341 83.5046 14.392 82.9743 14.392C82.4402 14.392 81.997 14.5341 81.6447 14.8182C81.2962 15.1023 81.0368 15.4792 80.8663 15.9489C80.6996 16.4148 80.6163 16.9261 80.6163 17.483C80.6163 18.0436 80.6996 18.5568 80.8663 19.0227C81.0368 19.4886 81.2962 19.8617 81.6447 20.142C81.997 20.4223 82.4402 20.5625 82.9743 20.5625ZM88.9331 21.8125V13.0852H90.5751V14.4716H90.666C90.8251 14.0019 91.1054 13.6326 91.5069 13.3636C91.9122 13.0909 92.3706 12.9545 92.8819 12.9545C92.988 12.9545 93.113 12.9583 93.2569 12.9659C93.4047 12.9735 93.5202 12.983 93.6035 12.9943V14.6193C93.5353 14.6004 93.4141 14.5795 93.2399 14.5568C93.0656 14.5303 92.8914 14.517 92.7172 14.517C92.3156 14.517 91.9577 14.6023 91.6433 14.7727C91.3327 14.9394 91.0865 15.1723 90.9047 15.4716C90.7228 15.767 90.6319 16.1042 90.6319 16.483V21.8125H88.9331ZM99.6632 13.0852V14.4489H94.8961V13.0852H99.6632ZM96.1745 10.9943H97.8734V19.25C97.8734 19.5795 97.9226 19.8277 98.0211 19.9943C98.1196 20.1572 98.2465 20.2689 98.4018 20.3295C98.5609 20.3864 98.7333 20.4148 98.9189 20.4148C99.0552 20.4148 99.1745 20.4053 99.2768 20.3864C99.3791 20.3674 99.4586 20.3523 99.5154 20.3409L99.8223 21.7443C99.7238 21.7822 99.5836 21.8201 99.4018 21.858C99.22 21.8996 98.9927 21.9223 98.72 21.9261C98.273 21.9337 97.8564 21.8542 97.47 21.6875C97.0836 21.5208 96.7711 21.2633 96.5325 20.9148C96.2939 20.5663 96.1745 20.1288 96.1745 19.6023V10.9943ZM107.942 15.2159L106.402 15.4886C106.337 15.2917 106.235 15.1042 106.095 14.9261C105.959 14.7481 105.773 14.6023 105.538 14.4886C105.303 14.375 105.01 14.3182 104.657 14.3182C104.176 14.3182 103.775 14.4261 103.453 14.642C103.131 14.8542 102.97 15.1288 102.97 15.4659C102.97 15.7576 103.078 15.9924 103.294 16.1705C103.51 16.3485 103.858 16.4943 104.339 16.608L105.726 16.9261C106.529 17.1117 107.127 17.3977 107.521 17.7841C107.915 18.1705 108.112 18.6723 108.112 19.2898C108.112 19.8125 107.961 20.2784 107.657 20.6875C107.358 21.0928 106.94 21.411 106.402 21.642C105.868 21.8731 105.248 21.9886 104.544 21.9886C103.567 21.9886 102.769 21.7803 102.152 21.3636C101.534 20.9432 101.156 20.3466 101.015 19.5739L102.657 19.3239C102.76 19.7519 102.97 20.0758 103.288 20.2955C103.606 20.5114 104.021 20.6193 104.532 20.6193C105.089 20.6193 105.534 20.5038 105.868 20.2727C106.201 20.0379 106.368 19.7519 106.368 19.4148C106.368 19.142 106.265 18.9129 106.061 18.7273C105.86 18.5417 105.551 18.4015 105.135 18.3068L103.657 17.983C102.843 17.7973 102.241 17.5019 101.851 17.0966C101.464 16.6913 101.271 16.178 101.271 15.5568C101.271 15.0417 101.415 14.5909 101.703 14.2045C101.991 13.8182 102.389 13.517 102.896 13.3011C103.404 13.0814 103.985 12.9716 104.64 12.9716C105.584 12.9716 106.326 13.1761 106.868 13.5852C107.409 13.9905 107.767 14.5341 107.942 15.2159ZM116.106 10.1761V21.8125H114.351V10.1761H116.106ZM120.226 16.6307V21.8125H118.527V13.0852H120.157V14.5057H120.265C120.466 14.0436 120.781 13.6723 121.209 13.392C121.64 13.1117 122.184 12.9716 122.839 12.9716C123.434 12.9716 123.955 13.0966 124.402 13.3466C124.849 13.5928 125.195 13.9602 125.442 14.4489C125.688 14.9375 125.811 15.5417 125.811 16.2614V21.8125H124.112V16.4659C124.112 15.8333 123.947 15.339 123.618 14.983C123.288 14.6231 122.836 14.4432 122.26 14.4432C121.866 14.4432 121.515 14.5284 121.209 14.6989C120.906 14.8693 120.665 15.1193 120.487 15.4489C120.313 15.7746 120.226 16.1686 120.226 16.6307ZM134.629 15.2159L133.089 15.4886C133.025 15.2917 132.923 15.1042 132.782 14.9261C132.646 14.7481 132.461 14.6023 132.226 14.4886C131.991 14.375 131.697 14.3182 131.345 14.3182C130.864 14.3182 130.462 14.4261 130.14 14.642C129.818 14.8542 129.657 15.1288 129.657 15.4659C129.657 15.7576 129.765 15.9924 129.981 16.1705C130.197 16.3485 130.546 16.4943 131.027 16.608L132.413 16.9261C133.216 17.1117 133.815 17.3977 134.209 17.7841C134.603 18.1705 134.8 18.6723 134.8 19.2898C134.8 19.8125 134.648 20.2784 134.345 20.6875C134.046 21.0928 133.627 21.411 133.089 21.642C132.555 21.8731 131.936 21.9886 131.231 21.9886C130.254 21.9886 129.457 21.7803 128.839 21.3636C128.222 20.9432 127.843 20.3466 127.703 19.5739L129.345 19.3239C129.447 19.7519 129.657 20.0758 129.976 20.2955C130.294 20.5114 130.709 20.6193 131.22 20.6193C131.777 20.6193 132.222 20.5038 132.555 20.2727C132.889 20.0379 133.055 19.7519 133.055 19.4148C133.055 19.142 132.953 18.9129 132.748 18.7273C132.548 18.5417 132.239 18.4015 131.822 18.3068L130.345 17.983C129.531 17.7973 128.928 17.5019 128.538 17.0966C128.152 16.6913 127.959 16.178 127.959 15.5568C127.959 15.0417 128.103 14.5909 128.39 14.2045C128.678 13.8182 129.076 13.517 129.584 13.3011C130.091 13.0814 130.673 12.9716 131.328 12.9716C132.271 12.9716 133.014 13.1761 133.555 13.5852C134.097 13.9905 134.455 14.5341 134.629 15.2159ZM140.741 13.0852V14.4489H135.974V13.0852H140.741ZM137.253 10.9943H138.952V19.25C138.952 19.5795 139.001 19.8277 139.099 19.9943C139.198 20.1572 139.325 20.2689 139.48 20.3295C139.639 20.3864 139.811 20.4148 139.997 20.4148C140.133 20.4148 140.253 20.4053 140.355 20.3864C140.457 20.3674 140.537 20.3523 140.594 20.3409L140.9 21.7443C140.802 21.7822 140.662 21.8201 140.48 21.858C140.298 21.8996 140.071 21.9223 139.798 21.9261C139.351 21.9337 138.934 21.8542 138.548 21.6875C138.162 21.5208 137.849 21.2633 137.611 20.9148C137.372 20.5663 137.253 20.1288 137.253 19.6023V10.9943ZM142.621 21.8125V13.0852H144.319V21.8125H142.621ZM143.479 11.7386C143.183 11.7386 142.929 11.6402 142.717 11.4432C142.509 11.2424 142.405 11.0038 142.405 10.7273C142.405 10.447 142.509 10.2083 142.717 10.0114C142.929 9.81061 143.183 9.71023 143.479 9.71023C143.774 9.71023 144.026 9.81061 144.234 10.0114C144.446 10.2083 144.552 10.447 144.552 10.7273C144.552 11.0038 144.446 11.2424 144.234 11.4432C144.026 11.6402 143.774 11.7386 143.479 11.7386ZM150.679 13.0852V14.4489H145.912V13.0852H150.679ZM147.19 10.9943H148.889V19.25C148.889 19.5795 148.938 19.8277 149.037 19.9943C149.135 20.1572 149.262 20.2689 149.417 20.3295C149.577 20.3864 149.749 20.4148 149.934 20.4148C150.071 20.4148 150.19 20.4053 150.292 20.3864C150.395 20.3674 150.474 20.3523 150.531 20.3409L150.838 21.7443C150.739 21.7822 150.599 21.8201 150.417 21.858C150.236 21.8996 150.008 21.9223 149.736 21.9261C149.289 21.9337 148.872 21.8542 148.486 21.6875C148.099 21.5208 147.787 21.2633 147.548 20.9148C147.309 20.5663 147.19 20.1288 147.19 19.6023V10.9943ZM158.086 18.1932V13.0852H159.791V21.8125H158.121V20.3011H158.03C157.829 20.767 157.507 21.1553 157.064 21.4659C156.624 21.7727 156.077 21.9261 155.422 21.9261C154.861 21.9261 154.365 21.803 153.933 21.5568C153.505 21.3068 153.168 20.9375 152.922 20.4489C152.679 19.9602 152.558 19.3561 152.558 18.6364V13.0852H154.257V18.4318C154.257 19.0265 154.422 19.5 154.751 19.8523C155.081 20.2045 155.509 20.3807 156.035 20.3807C156.354 20.3807 156.67 20.3011 156.984 20.142C157.302 19.983 157.566 19.7424 157.774 19.4205C157.986 19.0985 158.09 18.6894 158.086 18.1932ZM166.148 13.0852V14.4489H161.381V13.0852H166.148ZM162.659 10.9943H164.358V19.25C164.358 19.5795 164.407 19.8277 164.506 19.9943C164.604 20.1572 164.731 20.2689 164.886 20.3295C165.045 20.3864 165.218 20.4148 165.403 20.4148C165.54 20.4148 165.659 20.4053 165.761 20.3864C165.863 20.3674 165.943 20.3523 166 20.3409L166.307 21.7443C166.208 21.7822 166.068 21.8201 165.886 21.858C165.704 21.8996 165.477 21.9223 165.204 21.9261C164.757 21.9337 164.341 21.8542 163.954 21.6875C163.568 21.5208 163.256 21.2633 163.017 20.9148C162.778 20.5663 162.659 20.1288 162.659 19.6023V10.9943ZM171.694 21.9886C170.835 21.9886 170.094 21.8049 169.473 21.4375C168.855 21.0663 168.378 20.5455 168.041 19.875C167.708 19.2008 167.541 18.411 167.541 17.5057C167.541 16.6117 167.708 15.8239 168.041 15.142C168.378 14.4602 168.848 13.928 169.45 13.5455C170.056 13.1629 170.765 12.9716 171.575 12.9716C172.068 12.9716 172.545 13.053 173.007 13.2159C173.469 13.3788 173.884 13.6345 174.251 13.983C174.619 14.3314 174.908 14.7841 175.121 15.3409C175.333 15.8939 175.439 16.5663 175.439 17.358V17.9602H168.501V16.6875H173.774C173.774 16.2405 173.683 15.8447 173.501 15.5C173.319 15.1515 173.064 14.8769 172.734 14.6761C172.408 14.4754 172.026 14.375 171.586 14.375C171.109 14.375 170.693 14.4924 170.336 14.7273C169.984 14.9583 169.711 15.2614 169.518 15.6364C169.329 16.0076 169.234 16.411 169.234 16.8466V17.8409C169.234 18.4242 169.336 18.9205 169.541 19.3295C169.749 19.7386 170.039 20.0511 170.41 20.267C170.782 20.4792 171.215 20.5852 171.711 20.5852C172.033 20.5852 172.327 20.5398 172.592 20.4489C172.857 20.3542 173.086 20.214 173.28 20.0284C173.473 19.8428 173.621 19.6136 173.723 19.3409L175.331 19.6307C175.202 20.1042 174.971 20.5189 174.638 20.875C174.308 21.2273 173.893 21.5019 173.393 21.6989C172.897 21.892 172.331 21.9886 171.694 21.9886Z" fill="white"/>
<defs>
<linearGradient id="paint0_linear_550_37" x1="-5.18502" y1="6.32753" x2="238.929" y2="48.8168" gradientUnits="userSpaceOnUse">
<stop stop-color="#333333"/>
<stop offset="1" stop-color="#201F1F"/>
</linearGradient>
</defs>
</svg>
