<svg width="242" height="103" viewBox="0 0 242 103" fill="none" xmlns="http://www.w3.org/2000/svg">
<path d="M38.625 16.125H1.125V102.625" stroke="white" stroke-width="2"/>
<rect x="30.4277" y="0.875" width="210.822" height="32.25" fill="url(#paint0_linear_550_73)"/>
<rect x="27.375" y="0.875" width="6.10499" height="32.25" fill="white"/>
<path d="M46.2042 22.5V10.8636H53.4201V12.375H47.9599V15.9205H52.9031V17.4261H47.9599V22.5H46.2042ZM58.4783 22.6761C57.6602 22.6761 56.9461 22.4886 56.3363 22.1136C55.7264 21.7386 55.253 21.214 54.9158 20.5398C54.5787 19.8655 54.4102 19.0777 54.4102 18.1761C54.4102 17.2708 54.5787 16.4792 54.9158 15.8011C55.253 15.1231 55.7264 14.5966 56.3363 14.2216C56.9461 13.8466 57.6602 13.6591 58.4783 13.6591C59.2965 13.6591 60.0105 13.8466 60.6204 14.2216C61.2302 14.5966 61.7037 15.1231 62.0408 15.8011C62.378 16.4792 62.5465 17.2708 62.5465 18.1761C62.5465 19.0777 62.378 19.8655 62.0408 20.5398C61.7037 21.214 61.2302 21.7386 60.6204 22.1136C60.0105 22.4886 59.2965 22.6761 58.4783 22.6761ZM58.484 21.25C59.0143 21.25 59.4537 21.1098 59.8022 20.8295C60.1507 20.5492 60.4083 20.1761 60.5749 19.7102C60.7454 19.2443 60.8306 18.7311 60.8306 18.1705C60.8306 17.6136 60.7454 17.1023 60.5749 16.6364C60.4083 16.1667 60.1507 15.7898 59.8022 15.5057C59.4537 15.2216 59.0143 15.0795 58.484 15.0795C57.9499 15.0795 57.5067 15.2216 57.1545 15.5057C56.806 15.7898 56.5465 16.1667 56.3761 16.6364C56.2094 17.1023 56.1261 17.6136 56.1261 18.1705C56.1261 18.7311 56.2094 19.2443 56.3761 19.7102C56.5465 20.1761 56.806 20.5492 57.1545 20.8295C57.5067 21.1098 57.9499 21.25 58.484 21.25ZM64.4428 22.5V13.7727H66.0849V15.1591H66.1758C66.3349 14.6894 66.6152 14.3201 67.0167 14.0511C67.422 13.7784 67.8803 13.642 68.3917 13.642C68.4978 13.642 68.6228 13.6458 68.7667 13.6534C68.9144 13.661 69.0299 13.6705 69.1133 13.6818V15.3068C69.0451 15.2879 68.9239 15.267 68.7496 15.2443C68.5754 15.2178 68.4012 15.2045 68.2269 15.2045C67.8254 15.2045 67.4674 15.2898 67.1531 15.4602C66.8424 15.6269 66.5962 15.8598 66.4144 16.1591C66.2326 16.4545 66.1417 16.7917 66.1417 17.1705V22.5H64.4428ZM75.1729 13.7727V15.1364H70.4059V13.7727H75.1729ZM71.6843 11.6818H73.3832V19.9375C73.3832 20.267 73.4324 20.5152 73.5309 20.6818C73.6294 20.8447 73.7563 20.9564 73.9116 21.017C74.0707 21.0739 74.243 21.1023 74.4286 21.1023C74.565 21.1023 74.6843 21.0928 74.7866 21.0739C74.8888 21.0549 74.9684 21.0398 75.0252 21.0284L75.332 22.4318C75.2335 22.4697 75.0934 22.5076 74.9116 22.5455C74.7298 22.5871 74.5025 22.6098 74.2298 22.6136C73.7828 22.6212 73.3661 22.5417 72.9798 22.375C72.5934 22.2083 72.2809 21.9508 72.0423 21.6023C71.8036 21.2538 71.6843 20.8163 71.6843 20.2898V11.6818ZM79.592 22.6932C79.0389 22.6932 78.5389 22.5909 78.092 22.3864C77.645 22.178 77.2908 21.8769 77.0295 21.483C76.7719 21.089 76.6431 20.6061 76.6431 20.0341C76.6431 19.5417 76.7378 19.1364 76.9272 18.8182C77.1166 18.5 77.3723 18.2481 77.6942 18.0625C78.0162 17.8769 78.3761 17.7367 78.7738 17.642C79.1715 17.5473 79.5768 17.4754 79.9897 17.4261C80.5124 17.3655 80.9367 17.3163 81.2624 17.2784C81.5882 17.2367 81.8249 17.1705 81.9727 17.0795C82.1204 16.9886 82.1942 16.8409 82.1942 16.6364V16.5966C82.1942 16.1004 82.0541 15.7159 81.7738 15.4432C81.4973 15.1705 81.0844 15.0341 80.5352 15.0341C79.9632 15.0341 79.5124 15.161 79.1829 15.4148C78.8571 15.6648 78.6317 15.9432 78.5067 16.25L76.9102 15.8864C77.0996 15.3561 77.3761 14.928 77.7397 14.6023C78.1071 14.2727 78.5295 14.0341 79.0067 13.8864C79.484 13.7348 79.9859 13.6591 80.5124 13.6591C80.8609 13.6591 81.2302 13.7008 81.6204 13.7841C82.0143 13.8636 82.3817 14.0114 82.7227 14.2273C83.0674 14.4432 83.3496 14.7519 83.5692 15.1534C83.7889 15.5511 83.8988 16.0682 83.8988 16.7045V22.5H82.2397V21.3068H82.1715C82.0617 21.5265 81.8969 21.7424 81.6772 21.9545C81.4575 22.1667 81.1753 22.3428 80.8306 22.483C80.4859 22.6231 80.073 22.6932 79.592 22.6932ZM79.9613 21.3295C80.431 21.3295 80.8325 21.2367 81.1658 21.0511C81.503 20.8655 81.7586 20.6231 81.9329 20.3239C82.1109 20.0208 82.1999 19.697 82.1999 19.3523V18.2273C82.1393 18.2879 82.0219 18.3447 81.8477 18.3977C81.6772 18.447 81.4821 18.4905 81.2624 18.5284C81.0427 18.5625 80.8287 18.5947 80.6204 18.625C80.4121 18.6515 80.2378 18.6742 80.0977 18.6932C79.7681 18.7348 79.467 18.8049 79.1942 18.9034C78.9253 19.0019 78.7094 19.1439 78.5465 19.3295C78.3874 19.5114 78.3079 19.7538 78.3079 20.0568C78.3079 20.4773 78.4632 20.7955 78.7738 21.0114C79.0844 21.2235 79.4802 21.3295 79.9613 21.3295ZM87.8604 10.8636V22.5H86.1616V10.8636H87.8604ZM93.9073 22.6761C93.0475 22.6761 92.3069 22.4924 91.6857 22.125C91.0683 21.7538 90.591 21.233 90.2539 20.5625C89.9206 19.8883 89.7539 19.0985 89.7539 18.1932C89.7539 17.2992 89.9206 16.5114 90.2539 15.8295C90.591 15.1477 91.0607 14.6155 91.663 14.233C92.2691 13.8504 92.9774 13.6591 93.788 13.6591C94.2804 13.6591 94.7577 13.7405 95.2198 13.9034C95.6819 14.0663 96.0967 14.322 96.4641 14.6705C96.8316 15.0189 97.1213 15.4716 97.3335 16.0284C97.5456 16.5814 97.6516 17.2538 97.6516 18.0455V18.6477H90.7141V17.375H95.9869C95.9869 16.928 95.896 16.5322 95.7141 16.1875C95.5323 15.839 95.2766 15.5644 94.9471 15.3636C94.6213 15.1629 94.2388 15.0625 93.7994 15.0625C93.3221 15.0625 92.9054 15.1799 92.5494 15.4148C92.1971 15.6458 91.9244 15.9489 91.7312 16.3239C91.5418 16.6951 91.4471 17.0985 91.4471 17.5341V18.5284C91.4471 19.1117 91.5494 19.608 91.7539 20.017C91.9622 20.4261 92.252 20.7386 92.6232 20.9545C92.9944 21.1667 93.4281 21.2727 93.9244 21.2727C94.2463 21.2727 94.5399 21.2273 94.805 21.1364C95.0702 21.0417 95.2994 20.9015 95.4925 20.7159C95.6857 20.5303 95.8335 20.3011 95.9357 20.0284L97.5437 20.3182C97.4149 20.7917 97.1838 21.2064 96.8505 21.5625C96.521 21.9148 96.1062 22.1894 95.6062 22.3864C95.11 22.5795 94.5437 22.6761 93.9073 22.6761ZM99.3548 22.5V21.3352L104.082 15.3295V15.25H99.5082V13.7727H106.201V15.0114L101.656 20.9432V21.0227H106.36V22.5H99.3548ZM110.904 22.6932C110.351 22.6932 109.851 22.5909 109.404 22.3864C108.958 22.178 108.603 21.8769 108.342 21.483C108.084 21.089 107.956 20.6061 107.956 20.0341C107.956 19.5417 108.05 19.1364 108.24 18.8182C108.429 18.5 108.685 18.2481 109.007 18.0625C109.329 17.8769 109.689 17.7367 110.086 17.642C110.484 17.5473 110.889 17.4754 111.302 17.4261C111.825 17.3655 112.249 17.3163 112.575 17.2784C112.901 17.2367 113.137 17.1705 113.285 17.0795C113.433 16.9886 113.507 16.8409 113.507 16.6364V16.5966C113.507 16.1004 113.367 15.7159 113.086 15.4432C112.81 15.1705 112.397 15.0341 111.848 15.0341C111.276 15.0341 110.825 15.161 110.495 15.4148C110.17 15.6648 109.944 15.9432 109.819 16.25L108.223 15.8864C108.412 15.3561 108.689 14.928 109.052 14.6023C109.42 14.2727 109.842 14.0341 110.319 13.8864C110.797 13.7348 111.298 13.6591 111.825 13.6591C112.173 13.6591 112.543 13.7008 112.933 13.7841C113.327 13.8636 113.694 14.0114 114.035 14.2273C114.38 14.4432 114.662 14.7519 114.882 15.1534C115.101 15.5511 115.211 16.0682 115.211 16.7045V22.5H113.552V21.3068H113.484C113.374 21.5265 113.209 21.7424 112.99 21.9545C112.77 22.1667 112.488 22.3428 112.143 22.483C111.798 22.6231 111.386 22.6932 110.904 22.6932ZM111.274 21.3295C111.743 21.3295 112.145 21.2367 112.478 21.0511C112.815 20.8655 113.071 20.6231 113.245 20.3239C113.423 20.0208 113.512 19.697 113.512 19.3523V18.2273C113.452 18.2879 113.334 18.3447 113.16 18.3977C112.99 18.447 112.795 18.4905 112.575 18.5284C112.355 18.5625 112.141 18.5947 111.933 18.625C111.725 18.6515 111.55 18.6742 111.41 18.6932C111.081 18.7348 110.779 18.8049 110.507 18.9034C110.238 19.0019 110.022 19.1439 109.859 19.3295C109.7 19.5114 109.62 19.7538 109.62 20.0568C109.62 20.4773 109.776 20.7955 110.086 21.0114C110.397 21.2235 110.793 21.3295 111.274 21.3295ZM121.845 22.5V10.8636H123.6V16.4205H123.743L128.623 10.8636H130.833L126.14 16.1023L130.85 22.5H128.737L124.975 17.3011L123.6 18.8807V22.5H121.845ZM134.873 22.6932C134.32 22.6932 133.82 22.5909 133.373 22.3864C132.926 22.178 132.572 21.8769 132.311 21.483C132.053 21.089 131.924 20.6061 131.924 20.0341C131.924 19.5417 132.019 19.1364 132.208 18.8182C132.398 18.5 132.654 18.2481 132.975 18.0625C133.297 17.8769 133.657 17.7367 134.055 17.642C134.453 17.5473 134.858 17.4754 135.271 17.4261C135.794 17.3655 136.218 17.3163 136.544 17.2784C136.869 17.2367 137.106 17.1705 137.254 17.0795C137.402 16.9886 137.475 16.8409 137.475 16.6364V16.5966C137.475 16.1004 137.335 15.7159 137.055 15.4432C136.779 15.1705 136.366 15.0341 135.816 15.0341C135.244 15.0341 134.794 15.161 134.464 15.4148C134.138 15.6648 133.913 15.9432 133.788 16.25L132.191 15.8864C132.381 15.3561 132.657 14.928 133.021 14.6023C133.388 14.2727 133.811 14.0341 134.288 13.8864C134.765 13.7348 135.267 13.6591 135.794 13.6591C136.142 13.6591 136.511 13.7008 136.902 13.7841C137.296 13.8636 137.663 14.0114 138.004 14.2273C138.349 14.4432 138.631 14.7519 138.85 15.1534C139.07 15.5511 139.18 16.0682 139.18 16.7045V22.5H137.521V21.3068H137.453C137.343 21.5265 137.178 21.7424 136.958 21.9545C136.739 22.1667 136.457 22.3428 136.112 22.483C135.767 22.6231 135.354 22.6932 134.873 22.6932ZM135.243 21.3295C135.712 21.3295 136.114 21.2367 136.447 21.0511C136.784 20.8655 137.04 20.6231 137.214 20.3239C137.392 20.0208 137.481 19.697 137.481 19.3523V18.2273C137.421 18.2879 137.303 18.3447 137.129 18.3977C136.958 18.447 136.763 18.4905 136.544 18.5284C136.324 18.5625 136.11 18.5947 135.902 18.625C135.693 18.6515 135.519 18.6742 135.379 18.6932C135.049 18.7348 134.748 18.8049 134.475 18.9034C134.207 19.0019 133.991 19.1439 133.828 19.3295C133.669 19.5114 133.589 19.7538 133.589 20.0568C133.589 20.4773 133.744 20.7955 134.055 21.0114C134.366 21.2235 134.761 21.3295 135.243 21.3295ZM143.142 10.8636V22.5H141.443V10.8636H143.142ZM146.501 25.7727C146.247 25.7727 146.016 25.7519 145.808 25.7102C145.6 25.6723 145.444 25.6307 145.342 25.5852L145.751 24.1932C146.062 24.2765 146.338 24.3125 146.581 24.3011C146.823 24.2898 147.037 24.1989 147.223 24.0284C147.412 23.858 147.579 23.5795 147.723 23.1932L147.933 22.6136L144.74 13.7727H146.558L148.768 20.5455H148.859L151.069 13.7727H152.893L149.297 23.6648C149.13 24.1193 148.918 24.5038 148.66 24.8182C148.403 25.1364 148.096 25.375 147.74 25.5341C147.384 25.6932 146.971 25.7727 146.501 25.7727ZM156.779 22.6932C156.226 22.6932 155.726 22.5909 155.279 22.3864C154.833 22.178 154.478 21.8769 154.217 21.483C153.959 21.089 153.831 20.6061 153.831 20.0341C153.831 19.5417 153.925 19.1364 154.115 18.8182C154.304 18.5 154.56 18.2481 154.882 18.0625C155.204 17.8769 155.564 17.7367 155.961 17.642C156.359 17.5473 156.764 17.4754 157.177 17.4261C157.7 17.3655 158.124 17.3163 158.45 17.2784C158.776 17.2367 159.012 17.1705 159.16 17.0795C159.308 16.9886 159.382 16.8409 159.382 16.6364V16.5966C159.382 16.1004 159.242 15.7159 158.961 15.4432C158.685 15.1705 158.272 15.0341 157.723 15.0341C157.151 15.0341 156.7 15.161 156.37 15.4148C156.045 15.6648 155.819 15.9432 155.694 16.25L154.098 15.8864C154.287 15.3561 154.564 14.928 154.927 14.6023C155.295 14.2727 155.717 14.0341 156.194 13.8864C156.672 13.7348 157.173 13.6591 157.7 13.6591C158.048 13.6591 158.418 13.7008 158.808 13.7841C159.202 13.8636 159.569 14.0114 159.91 14.2273C160.255 14.4432 160.537 14.7519 160.757 15.1534C160.976 15.5511 161.086 16.0682 161.086 16.7045V22.5H159.427V21.3068H159.359C159.249 21.5265 159.084 21.7424 158.865 21.9545C158.645 22.1667 158.363 22.3428 158.018 22.483C157.673 22.6231 157.261 22.6932 156.779 22.6932ZM157.149 21.3295C157.618 21.3295 158.02 21.2367 158.353 21.0511C158.69 20.8655 158.946 20.6231 159.12 20.3239C159.298 20.0208 159.387 19.697 159.387 19.3523V18.2273C159.327 18.2879 159.209 18.3447 159.035 18.3977C158.865 18.447 158.67 18.4905 158.45 18.5284C158.23 18.5625 158.016 18.5947 157.808 18.625C157.6 18.6515 157.425 18.6742 157.285 18.6932C156.956 18.7348 156.654 18.8049 156.382 18.9034C156.113 19.0019 155.897 19.1439 155.734 19.3295C155.575 19.5114 155.495 19.7538 155.495 20.0568C155.495 20.4773 155.651 20.7955 155.961 21.0114C156.272 21.2235 156.668 21.3295 157.149 21.3295ZM165.048 17.3182V22.5H163.349V13.7727H164.98V15.1932H165.088C165.288 14.7311 165.603 14.3598 166.031 14.0795C166.463 13.7992 167.006 13.6591 167.662 13.6591C168.256 13.6591 168.777 13.7841 169.224 14.0341C169.671 14.2803 170.018 14.6477 170.264 15.1364C170.51 15.625 170.633 16.2292 170.633 16.9489V22.5H168.934V17.1534C168.934 16.5208 168.77 16.0265 168.44 15.6705C168.11 15.3106 167.658 15.1307 167.082 15.1307C166.688 15.1307 166.338 15.2159 166.031 15.3864C165.728 15.5568 165.487 15.8068 165.309 16.1364C165.135 16.4621 165.048 16.8561 165.048 17.3182ZM172.912 22.5V13.7727H174.61V22.5H172.912ZM173.77 12.4261C173.474 12.4261 173.22 12.3277 173.008 12.1307C172.8 11.9299 172.696 11.6913 172.696 11.4148C172.696 11.1345 172.8 10.8958 173.008 10.6989C173.22 10.4981 173.474 10.3977 173.77 10.3977C174.065 10.3977 174.317 10.4981 174.525 10.6989C174.737 10.8958 174.843 11.1345 174.843 11.4148C174.843 11.6913 174.737 11.9299 174.525 12.1307C174.317 12.3277 174.065 12.4261 173.77 12.4261ZM190.659 10.8636V22.5H189.045L183.13 13.9659H183.022V22.5H181.267V10.8636H182.892L188.812 19.4091H188.92V10.8636H190.659ZM195.623 22.6932C195.07 22.6932 194.57 22.5909 194.123 22.3864C193.676 22.178 193.322 21.8769 193.061 21.483C192.803 21.089 192.674 20.6061 192.674 20.0341C192.674 19.5417 192.769 19.1364 192.958 18.8182C193.148 18.5 193.404 18.2481 193.725 18.0625C194.047 17.8769 194.407 17.7367 194.805 17.642C195.203 17.5473 195.608 17.4754 196.021 17.4261C196.544 17.3655 196.968 17.3163 197.294 17.2784C197.619 17.2367 197.856 17.1705 198.004 17.0795C198.152 16.9886 198.225 16.8409 198.225 16.6364V16.5966C198.225 16.1004 198.085 15.7159 197.805 15.4432C197.529 15.1705 197.116 15.0341 196.566 15.0341C195.994 15.0341 195.544 15.161 195.214 15.4148C194.888 15.6648 194.663 15.9432 194.538 16.25L192.941 15.8864C193.131 15.3561 193.407 14.928 193.771 14.6023C194.138 14.2727 194.561 14.0341 195.038 13.8864C195.515 13.7348 196.017 13.6591 196.544 13.6591C196.892 13.6591 197.261 13.7008 197.652 13.7841C198.046 13.8636 198.413 14.0114 198.754 14.2273C199.099 14.4432 199.381 14.7519 199.6 15.1534C199.82 15.5511 199.93 16.0682 199.93 16.7045V22.5H198.271V21.3068H198.203C198.093 21.5265 197.928 21.7424 197.708 21.9545C197.489 22.1667 197.207 22.3428 196.862 22.483C196.517 22.6231 196.104 22.6932 195.623 22.6932ZM195.993 21.3295C196.462 21.3295 196.864 21.2367 197.197 21.0511C197.534 20.8655 197.79 20.6231 197.964 20.3239C198.142 20.0208 198.231 19.697 198.231 19.3523V18.2273C198.171 18.2879 198.053 18.3447 197.879 18.3977C197.708 18.447 197.513 18.4905 197.294 18.5284C197.074 18.5625 196.86 18.5947 196.652 18.625C196.443 18.6515 196.269 18.6742 196.129 18.6932C195.799 18.7348 195.498 18.8049 195.225 18.9034C194.957 19.0019 194.741 19.1439 194.578 19.3295C194.419 19.5114 194.339 19.7538 194.339 20.0568C194.339 20.4773 194.494 20.7955 194.805 21.0114C195.116 21.2235 195.511 21.3295 195.993 21.3295ZM205.852 25.9545C205.159 25.9545 204.562 25.8636 204.062 25.6818C203.566 25.5 203.161 25.2595 202.846 24.9602C202.532 24.661 202.297 24.3333 202.142 23.9773L203.602 23.375C203.704 23.5417 203.841 23.7178 204.011 23.9034C204.185 24.0928 204.42 24.2538 204.716 24.3864C205.015 24.5189 205.399 24.5852 205.869 24.5852C206.513 24.5852 207.045 24.428 207.466 24.1136C207.886 23.803 208.096 23.3068 208.096 22.625V20.9091H207.988C207.886 21.0947 207.738 21.3011 207.545 21.5284C207.356 21.7557 207.094 21.9527 206.761 22.1193C206.428 22.286 205.994 22.3693 205.46 22.3693C204.77 22.3693 204.149 22.2083 203.596 21.8864C203.047 21.5606 202.611 21.0814 202.289 20.4489C201.971 19.8125 201.812 19.0303 201.812 18.1023C201.812 17.1742 201.969 16.3788 202.284 15.7159C202.602 15.053 203.038 14.5455 203.591 14.1932C204.144 13.8371 204.77 13.6591 205.471 13.6591C206.013 13.6591 206.45 13.75 206.784 13.9318C207.117 14.1098 207.377 14.3182 207.562 14.5568C207.752 14.7955 207.897 15.0057 208 15.1875H208.125V13.7727H209.789V22.6932C209.789 23.4432 209.615 24.0587 209.267 24.5398C208.918 25.0208 208.447 25.3769 207.852 25.608C207.261 25.839 206.594 25.9545 205.852 25.9545ZM205.835 20.9602C206.324 20.9602 206.736 20.8466 207.074 20.6193C207.414 20.3883 207.672 20.0587 207.846 19.6307C208.024 19.1989 208.113 18.6818 208.113 18.0795C208.113 17.4924 208.026 16.9754 207.852 16.5284C207.678 16.0814 207.422 15.733 207.085 15.483C206.748 15.2292 206.331 15.1023 205.835 15.1023C205.324 15.1023 204.897 15.2348 204.556 15.5C204.216 15.7614 203.958 16.1174 203.784 16.5682C203.613 17.0189 203.528 17.5227 203.528 18.0795C203.528 18.6515 203.615 19.1534 203.789 19.5852C203.964 20.017 204.221 20.3542 204.562 20.5966C204.907 20.839 205.331 20.9602 205.835 20.9602ZM214.608 22.6932C214.055 22.6932 213.555 22.5909 213.108 22.3864C212.661 22.178 212.306 21.8769 212.045 21.483C211.788 21.089 211.659 20.6061 211.659 20.0341C211.659 19.5417 211.753 19.1364 211.943 18.8182C212.132 18.5 212.388 18.2481 212.71 18.0625C213.032 17.8769 213.392 17.7367 213.789 17.642C214.187 17.5473 214.592 17.4754 215.005 17.4261C215.528 17.3655 215.952 17.3163 216.278 17.2784C216.604 17.2367 216.841 17.1705 216.988 17.0795C217.136 16.9886 217.21 16.8409 217.21 16.6364V16.5966C217.21 16.1004 217.07 15.7159 216.789 15.4432C216.513 15.1705 216.1 15.0341 215.551 15.0341C214.979 15.0341 214.528 15.161 214.199 15.4148C213.873 15.6648 213.647 15.9432 213.522 16.25L211.926 15.8864C212.115 15.3561 212.392 14.928 212.755 14.6023C213.123 14.2727 213.545 14.0341 214.022 13.8864C214.5 13.7348 215.002 13.6591 215.528 13.6591C215.877 13.6591 216.246 13.7008 216.636 13.7841C217.03 13.8636 217.397 14.0114 217.738 14.2273C218.083 14.4432 218.365 14.7519 218.585 15.1534C218.805 15.5511 218.914 16.0682 218.914 16.7045V22.5H217.255V21.3068H217.187C217.077 21.5265 216.913 21.7424 216.693 21.9545C216.473 22.1667 216.191 22.3428 215.846 22.483C215.502 22.6231 215.089 22.6932 214.608 22.6932ZM214.977 21.3295C215.447 21.3295 215.848 21.2367 216.181 21.0511C216.519 20.8655 216.774 20.6231 216.949 20.3239C217.127 20.0208 217.216 19.697 217.216 19.3523V18.2273C217.155 18.2879 217.038 18.3447 216.863 18.3977C216.693 18.447 216.498 18.4905 216.278 18.5284C216.058 18.5625 215.844 18.5947 215.636 18.625C215.428 18.6515 215.253 18.6742 215.113 18.6932C214.784 18.7348 214.483 18.8049 214.21 18.9034C213.941 19.0019 213.725 19.1439 213.562 19.3295C213.403 19.5114 213.324 19.7538 213.324 20.0568C213.324 20.4773 213.479 20.7955 213.789 21.0114C214.1 21.2235 214.496 21.3295 214.977 21.3295ZM221.177 22.5V13.7727H222.819V15.1591H222.91C223.069 14.6894 223.35 14.3201 223.751 14.0511C224.156 13.7784 224.615 13.642 225.126 13.642C225.232 13.642 225.357 13.6458 225.501 13.6534C225.649 13.661 225.764 13.6705 225.848 13.6818V15.3068C225.779 15.2879 225.658 15.267 225.484 15.2443C225.31 15.2178 225.136 15.2045 224.961 15.2045C224.56 15.2045 224.202 15.2898 223.887 15.4602C223.577 15.6269 223.331 15.8598 223.149 16.1591C222.967 16.4545 222.876 16.7917 222.876 17.1705V22.5H221.177Z" fill="white"/>
<defs>
<linearGradient id="paint0_linear_550_73" x1="24.7196" y1="7.20253" x2="291.8" y2="58.3794" gradientUnits="userSpaceOnUse">
<stop stop-color="#7D7D7D"/>
<stop offset="1" stop-color="#414141"/>
</linearGradient>
</defs>
</svg>
