<svg width="178" height="158" viewBox="0 0 178 158" fill="none" xmlns="http://www.w3.org/2000/svg">
<path d="M38.75 16.125H1.25V158" stroke="white" stroke-width="2"/>
<rect x="30.5996" y="0.875" width="146.9" height="32.25" fill="url(#paint0_linear_550_67)"/>
<rect x="27.5" y="0.875" width="6.19776" height="32.25" fill="white"/>
<path d="M53.9034 14.5398C53.7936 14.1951 53.6458 13.8864 53.4602 13.6136C53.2784 13.3371 53.0606 13.1023 52.8068 12.9091C52.553 12.7121 52.2633 12.5625 51.9375 12.4602C51.6155 12.358 51.2614 12.3068 50.875 12.3068C50.2197 12.3068 49.6288 12.4754 49.1023 12.8125C48.5758 13.1496 48.1591 13.6439 47.8523 14.2955C47.5492 14.9432 47.3977 15.7367 47.3977 16.6761C47.3977 17.6193 47.5511 18.4167 47.858 19.0682C48.1648 19.7197 48.5852 20.214 49.1193 20.5511C49.6534 20.8883 50.2614 21.0568 50.9432 21.0568C51.5758 21.0568 52.1269 20.928 52.5966 20.6705C53.0701 20.4129 53.4356 20.0492 53.6932 19.5795C53.9545 19.1061 54.0852 18.5492 54.0852 17.9091L54.5398 17.9943H51.2102V16.5455H55.7841V17.8693C55.7841 18.8466 55.5758 19.6951 55.1591 20.4148C54.7462 21.1307 54.1742 21.6837 53.4432 22.0739C52.7159 22.464 51.8826 22.6591 50.9432 22.6591C49.8902 22.6591 48.9659 22.4167 48.1705 21.9318C47.3788 21.447 46.7614 20.7595 46.3182 19.8693C45.875 18.9754 45.6534 17.9148 45.6534 16.6875C45.6534 15.7595 45.7822 14.9261 46.0398 14.1875C46.2973 13.4489 46.6591 12.822 47.125 12.3068C47.5947 11.7879 48.1458 11.392 48.7784 11.1193C49.4148 10.8428 50.1098 10.7045 50.8636 10.7045C51.4924 10.7045 52.0777 10.7973 52.6193 10.983C53.1648 11.1686 53.6496 11.4318 54.0739 11.7727C54.5019 12.1136 54.8561 12.5189 55.1364 12.9886C55.4167 13.4545 55.6061 13.9716 55.7045 14.5398H53.9034ZM61.6378 22.6761C60.7779 22.6761 60.0374 22.4924 59.4162 22.125C58.7988 21.7538 58.3215 21.233 57.9844 20.5625C57.651 19.8883 57.4844 19.0985 57.4844 18.1932C57.4844 17.2992 57.651 16.5114 57.9844 15.8295C58.3215 15.1477 58.7912 14.6155 59.3935 14.233C59.9995 13.8504 60.7079 13.6591 61.5185 13.6591C62.0109 13.6591 62.4882 13.7405 62.9503 13.9034C63.4124 14.0663 63.8272 14.322 64.1946 14.6705C64.562 15.0189 64.8518 15.4716 65.0639 16.0284C65.276 16.5814 65.3821 17.2538 65.3821 18.0455V18.6477H58.4446V17.375H63.7173C63.7173 16.928 63.6264 16.5322 63.4446 16.1875C63.2628 15.839 63.0071 15.5644 62.6776 15.3636C62.3518 15.1629 61.9692 15.0625 61.5298 15.0625C61.0526 15.0625 60.6359 15.1799 60.2798 15.4148C59.9276 15.6458 59.6548 15.9489 59.4616 16.3239C59.2723 16.6951 59.1776 17.0985 59.1776 17.5341V18.5284C59.1776 19.1117 59.2798 19.608 59.4844 20.017C59.6927 20.4261 59.9825 20.7386 60.3537 20.9545C60.7249 21.1667 61.1586 21.2727 61.6548 21.2727C61.9768 21.2727 62.2704 21.2273 62.5355 21.1364C62.8007 21.0417 63.0298 20.9015 63.223 20.7159C63.4162 20.5303 63.5639 20.3011 63.6662 20.0284L65.2741 20.3182C65.1454 20.7917 64.9143 21.2064 64.581 21.5625C64.2514 21.9148 63.8366 22.1894 63.3366 22.3864C62.8404 22.5795 62.2741 22.6761 61.6378 22.6761ZM67.267 22.5V13.7727H68.9091V15.1591H69C69.1591 14.6894 69.4394 14.3201 69.8409 14.0511C70.2462 13.7784 70.7045 13.642 71.2159 13.642C71.322 13.642 71.447 13.6458 71.5909 13.6534C71.7386 13.661 71.8542 13.6705 71.9375 13.6818V15.3068C71.8693 15.2879 71.7481 15.267 71.5739 15.2443C71.3996 15.2178 71.2254 15.2045 71.0511 15.2045C70.6496 15.2045 70.2917 15.2898 69.9773 15.4602C69.6667 15.6269 69.4205 15.8598 69.2386 16.1591C69.0568 16.4545 68.9659 16.7917 68.9659 17.1705V22.5H67.267ZM73.4077 22.5V13.7727H75.0384V15.1932H75.1463C75.3281 14.7121 75.6255 14.3371 76.0384 14.0682C76.4512 13.7955 76.9455 13.6591 77.5213 13.6591C78.1046 13.6591 78.5933 13.7955 78.9872 14.0682C79.3849 14.3409 79.6785 14.7159 79.8679 15.1932H79.9588C80.1671 14.7273 80.4986 14.3561 80.9531 14.0795C81.4077 13.7992 81.9493 13.6591 82.5781 13.6591C83.3698 13.6591 84.0156 13.9072 84.5156 14.4034C85.0194 14.8996 85.2713 15.6477 85.2713 16.6477V22.5H83.5724V16.8068C83.5724 16.2159 83.4115 15.7879 83.0895 15.5227C82.7675 15.2576 82.383 15.125 81.9361 15.125C81.383 15.125 80.9531 15.2955 80.6463 15.6364C80.3395 15.9735 80.1861 16.4072 80.1861 16.9375V22.5H78.4929V16.6989C78.4929 16.2254 78.3452 15.8447 78.0497 15.5568C77.7543 15.2689 77.3698 15.125 76.8963 15.125C76.5743 15.125 76.277 15.2102 76.0043 15.3807C75.7353 15.5473 75.5175 15.7803 75.3509 16.0795C75.188 16.3788 75.1065 16.7254 75.1065 17.1193V22.5H73.4077ZM90.0881 22.6932C89.535 22.6932 89.035 22.5909 88.5881 22.3864C88.1411 22.178 87.7869 21.8769 87.5256 21.483C87.268 21.089 87.1392 20.6061 87.1392 20.0341C87.1392 19.5417 87.2339 19.1364 87.4233 18.8182C87.6127 18.5 87.8684 18.2481 88.1903 18.0625C88.5123 17.8769 88.8722 17.7367 89.2699 17.642C89.6676 17.5473 90.0729 17.4754 90.4858 17.4261C91.0085 17.3655 91.4328 17.3163 91.7585 17.2784C92.0843 17.2367 92.321 17.1705 92.4688 17.0795C92.6165 16.9886 92.6903 16.8409 92.6903 16.6364V16.5966C92.6903 16.1004 92.5502 15.7159 92.2699 15.4432C91.9934 15.1705 91.5805 15.0341 91.0312 15.0341C90.4593 15.0341 90.0085 15.161 89.679 15.4148C89.3532 15.6648 89.1278 15.9432 89.0028 16.25L87.4062 15.8864C87.5956 15.3561 87.8722 14.928 88.2358 14.6023C88.6032 14.2727 89.0256 14.0341 89.5028 13.8864C89.9801 13.7348 90.482 13.6591 91.0085 13.6591C91.357 13.6591 91.7263 13.7008 92.1165 13.7841C92.5104 13.8636 92.8778 14.0114 93.2188 14.2273C93.5634 14.4432 93.8456 14.7519 94.0653 15.1534C94.285 15.5511 94.3949 16.0682 94.3949 16.7045V22.5H92.7358V21.3068H92.6676C92.5578 21.5265 92.393 21.7424 92.1733 21.9545C91.9536 22.1667 91.6714 22.3428 91.3267 22.483C90.982 22.6231 90.5691 22.6932 90.0881 22.6932ZM90.4574 21.3295C90.9271 21.3295 91.3286 21.2367 91.6619 21.0511C91.9991 20.8655 92.2547 20.6231 92.429 20.3239C92.607 20.0208 92.696 19.697 92.696 19.3523V18.2273C92.6354 18.2879 92.518 18.3447 92.3438 18.3977C92.1733 18.447 91.9782 18.4905 91.7585 18.5284C91.5388 18.5625 91.3248 18.5947 91.1165 18.625C90.9081 18.6515 90.7339 18.6742 90.5938 18.6932C90.2642 18.7348 89.9631 18.8049 89.6903 18.9034C89.4214 19.0019 89.2055 19.1439 89.0426 19.3295C88.8835 19.5114 88.804 19.7538 88.804 20.0568C88.804 20.4773 88.9593 20.7955 89.2699 21.0114C89.5805 21.2235 89.9763 21.3295 90.4574 21.3295ZM98.3565 17.3182V22.5H96.6577V13.7727H98.2884V15.1932H98.3963C98.5971 14.7311 98.9115 14.3598 99.3395 14.0795C99.7713 13.7992 100.315 13.6591 100.97 13.6591C101.565 13.6591 102.086 13.7841 102.533 14.0341C102.98 14.2803 103.326 14.6477 103.572 15.1364C103.819 15.625 103.942 16.2292 103.942 16.9489V22.5H102.243V17.1534C102.243 16.5208 102.078 16.0265 101.749 15.6705C101.419 15.3106 100.966 15.1307 100.391 15.1307C99.9967 15.1307 99.6463 15.2159 99.3395 15.3864C99.0365 15.5568 98.7959 15.8068 98.6179 16.1364C98.4437 16.4621 98.3565 16.8561 98.3565 17.3182ZM110.591 22.5V10.8636H112.29V15.1875H112.392C112.491 15.0057 112.633 14.7955 112.818 14.5568C113.004 14.3182 113.261 14.1098 113.591 13.9318C113.92 13.75 114.356 13.6591 114.898 13.6591C115.602 13.6591 116.231 13.8371 116.784 14.1932C117.337 14.5492 117.771 15.0625 118.085 15.733C118.403 16.4034 118.562 17.2102 118.562 18.1534C118.562 19.0966 118.405 19.9053 118.091 20.5795C117.777 21.25 117.345 21.767 116.795 22.1307C116.246 22.4905 115.619 22.6705 114.915 22.6705C114.384 22.6705 113.951 22.5814 113.614 22.4034C113.28 22.2254 113.019 22.017 112.83 21.7784C112.64 21.5398 112.494 21.3277 112.392 21.142H112.25V22.5H110.591ZM112.256 18.1364C112.256 18.75 112.345 19.2879 112.523 19.75C112.701 20.2121 112.958 20.5739 113.295 20.8352C113.633 21.0928 114.045 21.2216 114.534 21.2216C115.042 21.2216 115.466 21.0871 115.807 20.8182C116.148 20.5455 116.405 20.1761 116.58 19.7102C116.758 19.2443 116.847 18.7197 116.847 18.1364C116.847 17.5606 116.759 17.0436 116.585 16.5852C116.415 16.1269 116.157 15.7652 115.812 15.5C115.472 15.2348 115.045 15.1023 114.534 15.1023C114.042 15.1023 113.625 15.2292 113.284 15.483C112.947 15.7367 112.691 16.0909 112.517 16.5455C112.343 17 112.256 17.5303 112.256 18.1364ZM123.01 22.6932C122.457 22.6932 121.957 22.5909 121.51 22.3864C121.063 22.178 120.709 21.8769 120.447 21.483C120.19 21.089 120.061 20.6061 120.061 20.0341C120.061 19.5417 120.156 19.1364 120.345 18.8182C120.535 18.5 120.79 18.2481 121.112 18.0625C121.434 17.8769 121.794 17.7367 122.192 17.642C122.589 17.5473 122.995 17.4754 123.408 17.4261C123.93 17.3655 124.355 17.3163 124.68 17.2784C125.006 17.2367 125.243 17.1705 125.391 17.0795C125.538 16.9886 125.612 16.8409 125.612 16.6364V16.5966C125.612 16.1004 125.472 15.7159 125.192 15.4432C124.915 15.1705 124.502 15.0341 123.953 15.0341C123.381 15.0341 122.93 15.161 122.601 15.4148C122.275 15.6648 122.05 15.9432 121.925 16.25L120.328 15.8864C120.518 15.3561 120.794 14.928 121.158 14.6023C121.525 14.2727 121.947 14.0341 122.425 13.8864C122.902 13.7348 123.404 13.6591 123.93 13.6591C124.279 13.6591 124.648 13.7008 125.038 13.7841C125.432 13.8636 125.8 14.0114 126.141 14.2273C126.485 14.4432 126.768 14.7519 126.987 15.1534C127.207 15.5511 127.317 16.0682 127.317 16.7045V22.5H125.658V21.3068H125.589C125.48 21.5265 125.315 21.7424 125.095 21.9545C124.875 22.1667 124.593 22.3428 124.249 22.483C123.904 22.6231 123.491 22.6932 123.01 22.6932ZM123.379 21.3295C123.849 21.3295 124.25 21.2367 124.584 21.0511C124.921 20.8655 125.177 20.6231 125.351 20.3239C125.529 20.0208 125.618 19.697 125.618 19.3523V18.2273C125.557 18.2879 125.44 18.3447 125.266 18.3977C125.095 18.447 124.9 18.4905 124.68 18.5284C124.461 18.5625 124.247 18.5947 124.038 18.625C123.83 18.6515 123.656 18.6742 123.516 18.6932C123.186 18.7348 122.885 18.8049 122.612 18.9034C122.343 19.0019 122.127 19.1439 121.964 19.3295C121.805 19.5114 121.726 19.7538 121.726 20.0568C121.726 20.4773 121.881 20.7955 122.192 21.0114C122.502 21.2235 122.898 21.3295 123.379 21.3295ZM131.142 19.5398L131.131 17.4659H131.426L134.903 13.7727H136.938L132.972 17.9773H132.705L131.142 19.5398ZM129.58 22.5V10.8636H131.278V22.5H129.58ZM135.091 22.5L131.966 18.3523L133.136 17.1648L137.176 22.5H135.091ZM141.888 22.6761C141.028 22.6761 140.287 22.4924 139.666 22.125C139.049 21.7538 138.571 21.233 138.234 20.5625C137.901 19.8883 137.734 19.0985 137.734 18.1932C137.734 17.2992 137.901 16.5114 138.234 15.8295C138.571 15.1477 139.041 14.6155 139.643 14.233C140.25 13.8504 140.958 13.6591 141.768 13.6591C142.261 13.6591 142.738 13.7405 143.2 13.9034C143.662 14.0663 144.077 14.322 144.445 14.6705C144.812 15.0189 145.102 15.4716 145.314 16.0284C145.526 16.5814 145.632 17.2538 145.632 18.0455V18.6477H138.695V17.375H143.967C143.967 16.928 143.876 16.5322 143.695 16.1875C143.513 15.839 143.257 15.5644 142.928 15.3636C142.602 15.1629 142.219 15.0625 141.78 15.0625C141.303 15.0625 140.886 15.1799 140.53 15.4148C140.178 15.6458 139.905 15.9489 139.712 16.3239C139.522 16.6951 139.428 17.0985 139.428 17.5341V18.5284C139.428 19.1117 139.53 19.608 139.734 20.017C139.943 20.4261 140.232 20.7386 140.604 20.9545C140.975 21.1667 141.409 21.2727 141.905 21.2727C142.227 21.2727 142.52 21.2273 142.786 21.1364C143.051 21.0417 143.28 20.9015 143.473 20.7159C143.666 20.5303 143.814 20.3011 143.916 20.0284L145.524 20.3182C145.395 20.7917 145.164 21.2064 144.831 21.5625C144.501 21.9148 144.087 22.1894 143.587 22.3864C143.09 22.5795 142.524 22.6761 141.888 22.6761ZM147.517 22.5V13.7727H149.159V15.1591H149.25C149.409 14.6894 149.689 14.3201 150.091 14.0511C150.496 13.7784 150.955 13.642 151.466 13.642C151.572 13.642 151.697 13.6458 151.841 13.6534C151.989 13.661 152.104 13.6705 152.188 13.6818V15.3068C152.119 15.2879 151.998 15.267 151.824 15.2443C151.65 15.2178 151.475 15.2045 151.301 15.2045C150.9 15.2045 150.542 15.2898 150.227 15.4602C149.917 15.6269 149.67 15.8598 149.489 16.1591C149.307 16.4545 149.216 16.7917 149.216 17.1705V22.5H147.517ZM154.997 25.7727C154.743 25.7727 154.512 25.7519 154.304 25.7102C154.096 25.6723 153.94 25.6307 153.838 25.5852L154.247 24.1932C154.558 24.2765 154.834 24.3125 155.077 24.3011C155.319 24.2898 155.533 24.1989 155.719 24.0284C155.908 23.858 156.075 23.5795 156.219 23.1932L156.429 22.6136L153.236 13.7727H155.054L157.264 20.5455H157.355L159.565 13.7727H161.389L157.793 23.6648C157.626 24.1193 157.414 24.5038 157.156 24.8182C156.899 25.1364 156.592 25.375 156.236 25.5341C155.88 25.6932 155.467 25.7727 154.997 25.7727Z" fill="white"/>
<defs>
<linearGradient id="paint0_linear_550_67" x1="26.6222" y1="7.20253" x2="216.177" y2="32.5114" gradientUnits="userSpaceOnUse">
<stop stop-color="#333333"/>
<stop offset="1" stop-color="#201F1F"/>
</linearGradient>
</defs>
</svg>
