<svg width="145" height="98" viewBox="0 0 145 98" fill="none" xmlns="http://www.w3.org/2000/svg">
<path d="M38.75 16.125H1.25V98" stroke="white" stroke-width="2"/>
<rect x="30.5098" y="0.875" width="113.74" height="32.25" fill="url(#paint0_linear_550_49)"/>
<rect x="27.5" y="0.875" width="6.01631" height="32.25" fill="white"/>
<path d="M47.0284 22.5V10.8636H48.7841V15.9205H54.5852V10.8636H56.3466V22.5H54.5852V17.4261H48.7841V22.5H47.0284ZM59.8409 25.7727C59.5871 25.7727 59.3561 25.7519 59.1477 25.7102C58.9394 25.6723 58.7841 25.6307 58.6818 25.5852L59.0909 24.1932C59.4015 24.2765 59.678 24.3125 59.9205 24.3011C60.1629 24.2898 60.3769 24.1989 60.5625 24.0284C60.7519 23.858 60.9186 23.5795 61.0625 23.1932L61.2727 22.6136L58.0795 13.7727H59.8977L62.108 20.5455H62.1989L64.4091 13.7727H66.233L62.6364 23.6648C62.4697 24.1193 62.2576 24.5038 62 24.8182C61.7424 25.1364 61.4356 25.375 61.0795 25.5341C60.7235 25.6932 60.3106 25.7727 59.8409 25.7727ZM70.1193 22.6932C69.5663 22.6932 69.0663 22.5909 68.6193 22.3864C68.1723 22.178 67.8182 21.8769 67.5568 21.483C67.2992 21.089 67.1705 20.6061 67.1705 20.0341C67.1705 19.5417 67.2652 19.1364 67.4545 18.8182C67.6439 18.5 67.8996 18.2481 68.2216 18.0625C68.5436 17.8769 68.9034 17.7367 69.3011 17.642C69.6989 17.5473 70.1042 17.4754 70.517 17.4261C71.0398 17.3655 71.464 17.3163 71.7898 17.2784C72.1155 17.2367 72.3523 17.1705 72.5 17.0795C72.6477 16.9886 72.7216 16.8409 72.7216 16.6364V16.5966C72.7216 16.1004 72.5814 15.7159 72.3011 15.4432C72.0246 15.1705 71.6117 15.0341 71.0625 15.0341C70.4905 15.0341 70.0398 15.161 69.7102 15.4148C69.3845 15.6648 69.1591 15.9432 69.0341 16.25L67.4375 15.8864C67.6269 15.3561 67.9034 14.928 68.267 14.6023C68.6345 14.2727 69.0568 14.0341 69.5341 13.8864C70.0114 13.7348 70.5133 13.6591 71.0398 13.6591C71.3883 13.6591 71.7576 13.7008 72.1477 13.7841C72.5417 13.8636 72.9091 14.0114 73.25 14.2273C73.5947 14.4432 73.8769 14.7519 74.0966 15.1534C74.3163 15.5511 74.4261 16.0682 74.4261 16.7045V22.5H72.767V21.3068H72.6989C72.589 21.5265 72.4242 21.7424 72.2045 21.9545C71.9848 22.1667 71.7027 22.3428 71.358 22.483C71.0133 22.6231 70.6004 22.6932 70.1193 22.6932ZM70.4886 21.3295C70.9583 21.3295 71.3598 21.2367 71.6932 21.0511C72.0303 20.8655 72.286 20.6231 72.4602 20.3239C72.6383 20.0208 72.7273 19.697 72.7273 19.3523V18.2273C72.6667 18.2879 72.5492 18.3447 72.375 18.3977C72.2045 18.447 72.0095 18.4905 71.7898 18.5284C71.5701 18.5625 71.3561 18.5947 71.1477 18.625C70.9394 18.6515 70.7652 18.6742 70.625 18.6932C70.2955 18.7348 69.9943 18.8049 69.7216 18.9034C69.4527 19.0019 69.2367 19.1439 69.0739 19.3295C68.9148 19.5114 68.8352 19.7538 68.8352 20.0568C68.8352 20.4773 68.9905 20.7955 69.3011 21.0114C69.6117 21.2235 70.0076 21.3295 70.4886 21.3295ZM80.7628 13.7727V15.1364H75.9957V13.7727H80.7628ZM77.2741 11.6818H78.973V19.9375C78.973 20.267 79.0223 20.5152 79.1207 20.6818C79.2192 20.8447 79.3461 20.9564 79.5014 21.017C79.6605 21.0739 79.8329 21.1023 80.0185 21.1023C80.1548 21.1023 80.2741 21.0928 80.3764 21.0739C80.4787 21.0549 80.5582 21.0398 80.6151 21.0284L80.9219 22.4318C80.8234 22.4697 80.6832 22.5076 80.5014 22.5455C80.3196 22.5871 80.0923 22.6098 79.8196 22.6136C79.3726 22.6212 78.956 22.5417 78.5696 22.375C78.1832 22.2083 77.8707 21.9508 77.6321 21.6023C77.3935 21.2538 77.2741 20.8163 77.2741 20.2898V11.6818ZM86.7159 13.7727V15.1364H81.9489V13.7727H86.7159ZM83.2273 11.6818H84.9261V19.9375C84.9261 20.267 84.9754 20.5152 85.0739 20.6818C85.1723 20.8447 85.2992 20.9564 85.4545 21.017C85.6136 21.0739 85.786 21.1023 85.9716 21.1023C86.108 21.1023 86.2273 21.0928 86.3295 21.0739C86.4318 21.0549 86.5114 21.0398 86.5682 21.0284L86.875 22.4318C86.7765 22.4697 86.6364 22.5076 86.4545 22.5455C86.2727 22.5871 86.0455 22.6098 85.7727 22.6136C85.3258 22.6212 84.9091 22.5417 84.5227 22.375C84.1364 22.2083 83.8239 21.9508 83.5852 21.6023C83.3466 21.2538 83.2273 20.8163 83.2273 20.2898V11.6818ZM92.9659 22.5V10.8636H94.7216V15.9205H100.523V10.8636H102.284V22.5H100.523V17.4261H94.7216V22.5H92.9659ZM108.381 22.6761C107.563 22.6761 106.848 22.4886 106.239 22.1136C105.629 21.7386 105.155 21.214 104.818 20.5398C104.481 19.8655 104.312 19.0777 104.312 18.1761C104.312 17.2708 104.481 16.4792 104.818 15.8011C105.155 15.1231 105.629 14.5966 106.239 14.2216C106.848 13.8466 107.563 13.6591 108.381 13.6591C109.199 13.6591 109.913 13.8466 110.523 14.2216C111.133 14.5966 111.606 15.1231 111.943 15.8011C112.28 16.4792 112.449 17.2708 112.449 18.1761C112.449 19.0777 112.28 19.8655 111.943 20.5398C111.606 21.214 111.133 21.7386 110.523 22.1136C109.913 22.4886 109.199 22.6761 108.381 22.6761ZM108.386 21.25C108.917 21.25 109.356 21.1098 109.705 20.8295C110.053 20.5492 110.311 20.1761 110.477 19.7102C110.648 19.2443 110.733 18.7311 110.733 18.1705C110.733 17.6136 110.648 17.1023 110.477 16.6364C110.311 16.1667 110.053 15.7898 109.705 15.5057C109.356 15.2216 108.917 15.0795 108.386 15.0795C107.852 15.0795 107.409 15.2216 107.057 15.5057C106.708 15.7898 106.449 16.1667 106.278 16.6364C106.112 17.1023 106.028 17.6136 106.028 18.1705C106.028 18.7311 106.112 19.2443 106.278 19.7102C106.449 20.1761 106.708 20.5492 107.057 20.8295C107.409 21.1098 107.852 21.25 108.386 21.25ZM118.419 13.7727V15.1364H113.652V13.7727H118.419ZM114.93 11.6818H116.629V19.9375C116.629 20.267 116.679 20.5152 116.777 20.6818C116.875 20.8447 117.002 20.9564 117.158 21.017C117.317 21.0739 117.489 21.1023 117.675 21.1023C117.811 21.1023 117.93 21.0928 118.033 21.0739C118.135 21.0549 118.214 21.0398 118.271 21.0284L118.578 22.4318C118.48 22.4697 118.339 22.5076 118.158 22.5455C117.976 22.5871 117.749 22.6098 117.476 22.6136C117.029 22.6212 116.612 22.5417 116.226 22.375C115.839 22.2083 115.527 21.9508 115.288 21.6023C115.05 21.2538 114.93 20.8163 114.93 20.2898V11.6818ZM123.966 22.6761C123.106 22.6761 122.366 22.4924 121.744 22.125C121.127 21.7538 120.65 21.233 120.312 20.5625C119.979 19.8883 119.812 19.0985 119.812 18.1932C119.812 17.2992 119.979 16.5114 120.312 15.8295C120.65 15.1477 121.119 14.6155 121.722 14.233C122.328 13.8504 123.036 13.6591 123.847 13.6591C124.339 13.6591 124.816 13.7405 125.278 13.9034C125.741 14.0663 126.155 14.322 126.523 14.6705C126.89 15.0189 127.18 15.4716 127.392 16.0284C127.604 16.5814 127.71 17.2538 127.71 18.0455V18.6477H120.773V17.375H126.045C126.045 16.928 125.955 16.5322 125.773 16.1875C125.591 15.839 125.335 15.5644 125.006 15.3636C124.68 15.1629 124.297 15.0625 123.858 15.0625C123.381 15.0625 122.964 15.1799 122.608 15.4148C122.256 15.6458 121.983 15.9489 121.79 16.3239C121.6 16.6951 121.506 17.0985 121.506 17.5341V18.5284C121.506 19.1117 121.608 19.608 121.812 20.017C122.021 20.4261 122.311 20.7386 122.682 20.9545C123.053 21.1667 123.487 21.2727 123.983 21.2727C124.305 21.2727 124.598 21.2273 124.864 21.1364C125.129 21.0417 125.358 20.9015 125.551 20.7159C125.744 20.5303 125.892 20.3011 125.994 20.0284L127.602 20.3182C127.473 20.7917 127.242 21.2064 126.909 21.5625C126.58 21.9148 126.165 22.1894 125.665 22.3864C125.169 22.5795 124.602 22.6761 123.966 22.6761ZM131.294 10.8636V22.5H129.595V10.8636H131.294Z" fill="white"/>
<defs>
<linearGradient id="paint0_linear_550_49" x1="27.4302" y1="7.20253" x2="175.233" y2="22.4822" gradientUnits="userSpaceOnUse">
<stop stop-color="#333333"/>
<stop offset="1" stop-color="#201F1F"/>
</linearGradient>
</defs>
</svg>
