<svg width="337" height="103" viewBox="0 0 337 103" fill="none" xmlns="http://www.w3.org/2000/svg">
<path d="M196.125 86.875H158.625L1 0.875" stroke="white" stroke-width="2"/>
<rect width="148.369" height="32.25" transform="matrix(1 0 0 -1 188.006 102.125)" fill="url(#paint0_linear_550_61)"/>
<rect width="6.25974" height="32.25" transform="matrix(1 0 0 -1 184.875 102.125)" fill="white"/>
<path d="M213.795 79.8636V91.5H212.182L206.267 82.9659H206.159V91.5H204.403V79.8636H206.028L211.949 88.4091H212.057V79.8636H213.795ZM217.294 94.7727C217.04 94.7727 216.809 94.7519 216.601 94.7102C216.393 94.6723 216.237 94.6307 216.135 94.5852L216.544 93.1932C216.855 93.2765 217.131 93.3125 217.374 93.3011C217.616 93.2898 217.83 93.1989 218.016 93.0284C218.205 92.858 218.372 92.5795 218.516 92.1932L218.726 91.6136L215.533 82.7727H217.351L219.561 89.5455H219.652L221.862 82.7727H223.686L220.089 92.6648C219.923 93.1193 219.711 93.5038 219.453 93.8182C219.196 94.1364 218.889 94.375 218.533 94.5341C218.177 94.6932 217.764 94.7727 217.294 94.7727ZM227.572 91.6932C227.019 91.6932 226.519 91.5909 226.072 91.3864C225.625 91.178 225.271 90.8769 225.01 90.483C224.752 90.089 224.624 89.6061 224.624 89.0341C224.624 88.5417 224.718 88.1364 224.908 87.8182C225.097 87.5 225.353 87.2481 225.675 87.0625C225.997 86.8769 226.357 86.7367 226.754 86.642C227.152 86.5473 227.557 86.4754 227.97 86.4261C228.493 86.3655 228.917 86.3163 229.243 86.2784C229.569 86.2367 229.805 86.1705 229.953 86.0795C230.101 85.9886 230.175 85.8409 230.175 85.6364V85.5966C230.175 85.1004 230.035 84.7159 229.754 84.4432C229.478 84.1705 229.065 84.0341 228.516 84.0341C227.944 84.0341 227.493 84.161 227.163 84.4148C226.838 84.6648 226.612 84.9432 226.487 85.25L224.891 84.8864C225.08 84.3561 225.357 83.928 225.72 83.6023C226.088 83.2727 226.51 83.0341 226.987 82.8864C227.464 82.7348 227.966 82.6591 228.493 82.6591C228.841 82.6591 229.211 82.7008 229.601 82.7841C229.995 82.8636 230.362 83.0114 230.703 83.2273C231.048 83.4432 231.33 83.7519 231.55 84.1534C231.769 84.5511 231.879 85.0682 231.879 85.7045V91.5H230.22V90.3068H230.152C230.042 90.5265 229.877 90.7424 229.658 90.9545C229.438 91.1667 229.156 91.3428 228.811 91.483C228.466 91.6231 228.054 91.6932 227.572 91.6932ZM227.942 90.3295C228.411 90.3295 228.813 90.2367 229.146 90.0511C229.483 89.8655 229.739 89.6231 229.913 89.3239C230.091 89.0208 230.18 88.697 230.18 88.3523V87.2273C230.12 87.2879 230.002 87.3447 229.828 87.3977C229.658 87.447 229.463 87.4905 229.243 87.5284C229.023 87.5625 228.809 87.5947 228.601 87.625C228.393 87.6515 228.218 87.6742 228.078 87.6932C227.749 87.7348 227.447 87.8049 227.175 87.9034C226.906 88.0019 226.69 88.1439 226.527 88.3295C226.368 88.5114 226.288 88.7538 226.288 89.0568C226.288 89.4773 226.444 89.7955 226.754 90.0114C227.065 90.2235 227.461 90.3295 227.942 90.3295ZM238.216 82.7727V84.1364H233.449V82.7727H238.216ZM234.727 80.6818H236.426V88.9375C236.426 89.267 236.475 89.5152 236.574 89.6818C236.672 89.8447 236.799 89.9564 236.955 90.017C237.114 90.0739 237.286 90.1023 237.472 90.1023C237.608 90.1023 237.727 90.0928 237.83 90.0739C237.932 90.0549 238.011 90.0398 238.068 90.0284L238.375 91.4318C238.277 91.4697 238.136 91.5076 237.955 91.5455C237.773 91.5871 237.545 91.6098 237.273 91.6136C236.826 91.6212 236.409 91.5417 236.023 91.375C235.636 91.2083 235.324 90.9508 235.085 90.6023C234.847 90.2538 234.727 89.8163 234.727 89.2898V80.6818ZM240.095 91.5V82.7727H241.794V91.5H240.095ZM240.953 81.4261C240.658 81.4261 240.404 81.3277 240.192 81.1307C239.983 80.9299 239.879 80.6913 239.879 80.4148C239.879 80.1345 239.983 79.8958 240.192 79.6989C240.404 79.4981 240.658 79.3977 240.953 79.3977C241.249 79.3977 241.5 79.4981 241.709 79.6989C241.921 79.8958 242.027 80.1345 242.027 80.4148C242.027 80.6913 241.921 80.9299 241.709 81.1307C241.5 81.3277 241.249 81.4261 240.953 81.4261ZM247.876 81.375V79.8636H256.882V81.375H253.251V91.5H251.501V81.375H247.876ZM261.232 91.6761C260.372 91.6761 259.631 91.4924 259.01 91.125C258.393 90.7538 257.915 90.233 257.578 89.5625C257.245 88.8883 257.078 88.0985 257.078 87.1932C257.078 86.2992 257.245 85.5114 257.578 84.8295C257.915 84.1477 258.385 83.6155 258.987 83.233C259.593 82.8504 260.302 82.6591 261.112 82.6591C261.605 82.6591 262.082 82.7405 262.544 82.9034C263.006 83.0663 263.421 83.322 263.788 83.6705C264.156 84.0189 264.446 84.4716 264.658 85.0284C264.87 85.5814 264.976 86.2538 264.976 87.0455V87.6477H258.038V86.375H263.311C263.311 85.928 263.22 85.5322 263.038 85.1875C262.857 84.839 262.601 84.5644 262.271 84.3636C261.946 84.1629 261.563 84.0625 261.124 84.0625C260.646 84.0625 260.23 84.1799 259.874 84.4148C259.521 84.6458 259.249 84.9489 259.055 85.3239C258.866 85.6951 258.771 86.0985 258.771 86.5341V87.5284C258.771 88.1117 258.874 88.608 259.078 89.017C259.286 89.4261 259.576 89.7386 259.947 89.9545C260.319 90.1667 260.752 90.2727 261.249 90.2727C261.571 90.2727 261.864 90.2273 262.129 90.1364C262.394 90.0417 262.624 89.9015 262.817 89.7159C263.01 89.5303 263.158 89.3011 263.26 89.0284L264.868 89.3182C264.739 89.7917 264.508 90.2064 264.175 90.5625C263.845 90.9148 263.43 91.1894 262.93 91.3864C262.434 91.5795 261.868 91.6761 261.232 91.6761ZM270.537 91.6761C269.692 91.6761 268.965 91.4848 268.355 91.1023C267.749 90.7159 267.283 90.1837 266.957 89.5057C266.632 88.8277 266.469 88.0511 266.469 87.1761C266.469 86.2898 266.635 85.5076 266.969 84.8295C267.302 84.1477 267.772 83.6155 268.378 83.233C268.984 82.8504 269.698 82.6591 270.52 82.6591C271.183 82.6591 271.774 82.7822 272.293 83.0284C272.812 83.2708 273.23 83.6117 273.548 84.0511C273.87 84.4905 274.062 85.0038 274.122 85.5909H272.469C272.378 85.1818 272.17 84.8295 271.844 84.5341C271.522 84.2386 271.09 84.0909 270.548 84.0909C270.075 84.0909 269.66 84.2159 269.304 84.4659C268.952 84.7121 268.677 85.0644 268.48 85.5227C268.283 85.9773 268.185 86.5152 268.185 87.1364C268.185 87.7727 268.281 88.322 268.474 88.7841C268.668 89.2462 268.94 89.6042 269.293 89.858C269.649 90.1117 270.067 90.2386 270.548 90.2386C270.87 90.2386 271.162 90.1799 271.423 90.0625C271.688 89.9413 271.91 89.7689 272.088 89.5455C272.27 89.322 272.397 89.053 272.469 88.7386H274.122C274.062 89.303 273.878 89.8068 273.571 90.25C273.264 90.6932 272.853 91.0417 272.338 91.2955C271.827 91.5492 271.226 91.6761 270.537 91.6761ZM277.638 86.3182V91.5H275.939V79.8636H277.615V84.1932H277.723C277.928 83.7235 278.24 83.3504 278.661 83.0739C279.081 82.7973 279.63 82.6591 280.308 82.6591C280.907 82.6591 281.429 82.7822 281.876 83.0284C282.327 83.2746 282.676 83.642 282.922 84.1307C283.172 84.6155 283.297 85.2216 283.297 85.9489V91.5H281.598V86.1534C281.598 85.5133 281.433 85.017 281.104 84.6648C280.774 84.3087 280.316 84.1307 279.729 84.1307C279.327 84.1307 278.967 84.2159 278.649 84.3864C278.335 84.5568 278.087 84.8068 277.905 85.1364C277.727 85.4621 277.638 85.8561 277.638 86.3182ZM289.935 91.5V79.8636H294.082C294.988 79.8636 295.738 80.0284 296.332 80.358C296.927 80.6875 297.372 81.1383 297.668 81.7102C297.963 82.2784 298.111 82.9186 298.111 83.6307C298.111 84.3466 297.961 84.9905 297.662 85.5625C297.366 86.1307 296.92 86.5814 296.321 86.9148C295.726 87.2443 294.978 87.4091 294.077 87.4091H291.224V85.9205H293.918C294.49 85.9205 294.954 85.822 295.31 85.625C295.666 85.4242 295.927 85.1515 296.094 84.8068C296.26 84.4621 296.344 84.0701 296.344 83.6307C296.344 83.1913 296.26 82.8011 296.094 82.4602C295.927 82.1193 295.664 81.8523 295.304 81.6591C294.948 81.4659 294.478 81.3693 293.895 81.3693H291.69V91.5H289.935ZM302.494 91.6932C301.941 91.6932 301.441 91.5909 300.994 91.3864C300.547 91.178 300.193 90.8769 299.932 90.483C299.674 90.089 299.545 89.6061 299.545 89.0341C299.545 88.5417 299.64 88.1364 299.83 87.8182C300.019 87.5 300.275 87.2481 300.597 87.0625C300.919 86.8769 301.278 86.7367 301.676 86.642C302.074 86.5473 302.479 86.4754 302.892 86.4261C303.415 86.3655 303.839 86.3163 304.165 86.2784C304.491 86.2367 304.727 86.1705 304.875 86.0795C305.023 85.9886 305.097 85.8409 305.097 85.6364V85.5966C305.097 85.1004 304.956 84.7159 304.676 84.4432C304.4 84.1705 303.987 84.0341 303.438 84.0341C302.866 84.0341 302.415 84.161 302.085 84.4148C301.759 84.6648 301.534 84.9432 301.409 85.25L299.812 84.8864C300.002 84.3561 300.278 83.928 300.642 83.6023C301.009 83.2727 301.432 83.0341 301.909 82.8864C302.386 82.7348 302.888 82.6591 303.415 82.6591C303.763 82.6591 304.133 82.7008 304.523 82.7841C304.917 82.8636 305.284 83.0114 305.625 83.2273C305.97 83.4432 306.252 83.7519 306.472 84.1534C306.691 84.5511 306.801 85.0682 306.801 85.7045V91.5H305.142V90.3068H305.074C304.964 90.5265 304.799 90.7424 304.58 90.9545C304.36 91.1667 304.078 91.3428 303.733 91.483C303.388 91.6231 302.975 91.6932 302.494 91.6932ZM302.864 90.3295C303.333 90.3295 303.735 90.2367 304.068 90.0511C304.405 89.8655 304.661 89.6231 304.835 89.3239C305.013 89.0208 305.102 88.697 305.102 88.3523V87.2273C305.042 87.2879 304.924 87.3447 304.75 87.3977C304.58 87.447 304.384 87.4905 304.165 87.5284C303.945 87.5625 303.731 87.5947 303.523 87.625C303.314 87.6515 303.14 87.6742 303 87.6932C302.67 87.7348 302.369 87.8049 302.097 87.9034C301.828 88.0019 301.612 88.1439 301.449 88.3295C301.29 88.5114 301.21 88.7538 301.21 89.0568C301.21 89.4773 301.366 89.7955 301.676 90.0114C301.987 90.2235 302.383 90.3295 302.864 90.3295ZM309.064 91.5V82.7727H310.706V84.1591H310.797C310.956 83.6894 311.236 83.3201 311.638 83.0511C312.043 82.7784 312.501 82.642 313.013 82.642C313.119 82.642 313.244 82.6458 313.388 82.6534C313.536 82.661 313.651 82.6705 313.734 82.6818V84.3068C313.666 84.2879 313.545 84.267 313.371 84.2443C313.196 84.2178 313.022 84.2045 312.848 84.2045C312.446 84.2045 312.089 84.2898 311.774 84.4602C311.464 84.6269 311.217 84.8598 311.036 85.1591C310.854 85.4545 310.763 85.7917 310.763 86.1705V91.5H309.064ZM316.767 88.5398L316.756 86.4659H317.051L320.528 82.7727H322.562L318.597 86.9773H318.33L316.767 88.5398ZM315.205 91.5V79.8636H316.903V91.5H315.205ZM320.716 91.5L317.591 87.3523L318.761 86.1648L322.801 91.5H320.716Z" fill="white"/>
<defs>
<linearGradient id="paint0_linear_550_61" x1="-4.01722" y1="6.32753" x2="187.366" y2="32.1361" gradientUnits="userSpaceOnUse">
<stop stop-color="#333333"/>
<stop offset="1" stop-color="#201F1F"/>
</linearGradient>
</defs>
</svg>
