<svg width="170" height="99" viewBox="0 0 170 99" fill="none" xmlns="http://www.w3.org/2000/svg">
<path d="M131.25 15.75H168.75V91.875" stroke="white" stroke-width="2"/>
<path d="M131.25 15.75H168.75V99" stroke="white" stroke-width="2"/>
<rect width="142.5" height="32.25" transform="matrix(-1 0 0 1 142.5 0.5)" fill="url(#paint0_linear_550_43)"/>
<rect width="5.84919" height="32.25" transform="matrix(-1 0 0 1 142.5 0.5)" fill="white"/>
<path d="M24.3864 16.3068C24.3864 17.5492 24.1591 18.6174 23.7045 19.5114C23.25 20.4015 22.6269 21.0871 21.8352 21.5682C21.0473 22.0455 20.1515 22.2841 19.1477 22.2841C18.1402 22.2841 17.2405 22.0455 16.4489 21.5682C15.661 21.0871 15.0398 20.3996 14.5852 19.5057C14.1307 18.6117 13.9034 17.5455 13.9034 16.3068C13.9034 15.0644 14.1307 13.9981 14.5852 13.108C15.0398 12.214 15.661 11.5284 16.4489 11.0511C17.2405 10.5701 18.1402 10.3295 19.1477 10.3295C20.1515 10.3295 21.0473 10.5701 21.8352 11.0511C22.6269 11.5284 23.25 12.214 23.7045 13.108C24.1591 13.9981 24.3864 15.0644 24.3864 16.3068ZM22.6477 16.3068C22.6477 15.3598 22.4943 14.5625 22.1875 13.9148C21.8845 13.2633 21.4678 12.7708 20.9375 12.4375C20.411 12.1004 19.8144 11.9318 19.1477 11.9318C18.4773 11.9318 17.8788 12.1004 17.3523 12.4375C16.8258 12.7708 16.4091 13.2633 16.1023 13.9148C15.7992 14.5625 15.6477 15.3598 15.6477 16.3068C15.6477 17.2538 15.7992 18.053 16.1023 18.7045C16.4091 19.3523 16.8258 19.8447 17.3523 20.1818C17.8788 20.5152 18.4773 20.6818 19.1477 20.6818C19.8144 20.6818 20.411 20.5152 20.9375 20.1818C21.4678 19.8447 21.8845 19.3523 22.1875 18.7045C22.4943 18.053 22.6477 17.2538 22.6477 16.3068ZM32.9787 15.5284L31.4389 15.8011C31.3745 15.6042 31.2723 15.4167 31.1321 15.2386C30.9957 15.0606 30.8101 14.9148 30.5753 14.8011C30.3404 14.6875 30.0469 14.6307 29.6946 14.6307C29.2135 14.6307 28.812 14.7386 28.4901 14.9545C28.1681 15.1667 28.0071 15.4413 28.0071 15.7784C28.0071 16.0701 28.1151 16.3049 28.331 16.483C28.5469 16.661 28.8954 16.8068 29.3764 16.9205L30.7628 17.2386C31.5658 17.4242 32.1643 17.7102 32.5582 18.0966C32.9522 18.483 33.1491 18.9848 33.1491 19.6023C33.1491 20.125 32.9976 20.5909 32.6946 21C32.3954 21.4053 31.9768 21.7235 31.4389 21.9545C30.9048 22.1856 30.2855 22.3011 29.581 22.3011C28.6037 22.3011 27.8063 22.0928 27.1889 21.6761C26.5715 21.2557 26.1927 20.6591 26.0526 19.8864L27.6946 19.6364C27.7969 20.0644 28.0071 20.3883 28.3253 20.608C28.6435 20.8239 29.0582 20.9318 29.5696 20.9318C30.1264 20.9318 30.5715 20.8163 30.9048 20.5852C31.2382 20.3504 31.4048 20.0644 31.4048 19.7273C31.4048 19.4545 31.3026 19.2254 31.098 19.0398C30.8973 18.8542 30.5885 18.714 30.1719 18.6193L28.6946 18.2955C27.8802 18.1098 27.2779 17.8144 26.8878 17.4091C26.5014 17.0038 26.3082 16.4905 26.3082 15.8693C26.3082 15.3542 26.4522 14.9034 26.7401 14.517C27.0279 14.1307 27.4257 13.8295 27.9332 13.6136C28.4408 13.3939 29.0223 13.2841 29.6776 13.2841C30.6207 13.2841 31.3632 13.4886 31.9048 13.8977C32.4465 14.303 32.8045 14.8466 32.9787 15.5284ZM36.7159 16.9432V22.125H35.017V10.4886H36.6932V14.8182H36.8011C37.0057 14.3485 37.3182 13.9754 37.7386 13.6989C38.1591 13.4223 38.7083 13.2841 39.3864 13.2841C39.9848 13.2841 40.5076 13.4072 40.9545 13.6534C41.4053 13.8996 41.7538 14.267 42 14.7557C42.25 15.2405 42.375 15.8466 42.375 16.5739V22.125H40.6761V16.7784C40.6761 16.1383 40.5114 15.642 40.1818 15.2898C39.8523 14.9337 39.3939 14.7557 38.8068 14.7557C38.4053 14.7557 38.0455 14.8409 37.7273 15.0114C37.4129 15.1818 37.1648 15.4318 36.983 15.7614C36.8049 16.0871 36.7159 16.4811 36.7159 16.9432ZM48.3182 22.3011C47.5 22.3011 46.786 22.1136 46.1761 21.7386C45.5663 21.3636 45.0928 20.839 44.7557 20.1648C44.4186 19.4905 44.25 18.7027 44.25 17.8011C44.25 16.8958 44.4186 16.1042 44.7557 15.4261C45.0928 14.7481 45.5663 14.2216 46.1761 13.8466C46.786 13.4716 47.5 13.2841 48.3182 13.2841C49.1364 13.2841 49.8504 13.4716 50.4602 13.8466C51.0701 14.2216 51.5436 14.7481 51.8807 15.4261C52.2178 16.1042 52.3864 16.8958 52.3864 17.8011C52.3864 18.7027 52.2178 19.4905 51.8807 20.1648C51.5436 20.839 51.0701 21.3636 50.4602 21.7386C49.8504 22.1136 49.1364 22.3011 48.3182 22.3011ZM48.3239 20.875C48.8542 20.875 49.2936 20.7348 49.642 20.4545C49.9905 20.1742 50.2481 19.8011 50.4148 19.3352C50.5852 18.8693 50.6705 18.3561 50.6705 17.7955C50.6705 17.2386 50.5852 16.7273 50.4148 16.2614C50.2481 15.7917 49.9905 15.4148 49.642 15.1307C49.2936 14.8466 48.8542 14.7045 48.3239 14.7045C47.7898 14.7045 47.3466 14.8466 46.9943 15.1307C46.6458 15.4148 46.3864 15.7917 46.2159 16.2614C46.0492 16.7273 45.9659 17.2386 45.9659 17.7955C45.9659 18.3561 46.0492 18.8693 46.2159 19.3352C46.3864 19.8011 46.6458 20.1742 46.9943 20.4545C47.3466 20.7348 47.7898 20.875 48.3239 20.875ZM66.5284 14.1648C66.4186 13.8201 66.2708 13.5114 66.0852 13.2386C65.9034 12.9621 65.6856 12.7273 65.4318 12.5341C65.178 12.3371 64.8883 12.1875 64.5625 12.0852C64.2405 11.983 63.8864 11.9318 63.5 11.9318C62.8447 11.9318 62.2538 12.1004 61.7273 12.4375C61.2008 12.7746 60.7841 13.2689 60.4773 13.9205C60.1742 14.5682 60.0227 15.3617 60.0227 16.3011C60.0227 17.2443 60.1761 18.0417 60.483 18.6932C60.7898 19.3447 61.2102 19.839 61.7443 20.1761C62.2784 20.5133 62.8864 20.6818 63.5682 20.6818C64.2008 20.6818 64.7519 20.553 65.2216 20.2955C65.6951 20.0379 66.0606 19.6742 66.3182 19.2045C66.5795 18.7311 66.7102 18.1742 66.7102 17.5341L67.1648 17.6193H63.8352V16.1705H68.4091V17.4943C68.4091 18.4716 68.2008 19.3201 67.7841 20.0398C67.3712 20.7557 66.7992 21.3087 66.0682 21.6989C65.3409 22.089 64.5076 22.2841 63.5682 22.2841C62.5152 22.2841 61.5909 22.0417 60.7955 21.5568C60.0038 21.072 59.3864 20.3845 58.9432 19.4943C58.5 18.6004 58.2784 17.5398 58.2784 16.3125C58.2784 15.3845 58.4072 14.5511 58.6648 13.8125C58.9223 13.0739 59.2841 12.447 59.75 11.9318C60.2197 11.4129 60.7708 11.017 61.4034 10.7443C62.0398 10.4678 62.7348 10.3295 63.4886 10.3295C64.1174 10.3295 64.7027 10.4223 65.2443 10.608C65.7898 10.7936 66.2746 11.0568 66.6989 11.3977C67.1269 11.7386 67.4811 12.1439 67.7614 12.6136C68.0417 13.0795 68.2311 13.5966 68.3295 14.1648H66.5284ZM73.0412 22.3182C72.4882 22.3182 71.9882 22.2159 71.5412 22.0114C71.0942 21.803 70.7401 21.5019 70.4787 21.108C70.2211 20.714 70.0923 20.2311 70.0923 19.6591C70.0923 19.1667 70.187 18.7614 70.3764 18.4432C70.5658 18.125 70.8215 17.8731 71.1435 17.6875C71.4654 17.5019 71.8253 17.3617 72.223 17.267C72.6207 17.1723 73.026 17.1004 73.4389 17.0511C73.9616 16.9905 74.3859 16.9413 74.7116 16.9034C75.0374 16.8617 75.2741 16.7955 75.4219 16.7045C75.5696 16.6136 75.6435 16.4659 75.6435 16.2614V16.2216C75.6435 15.7254 75.5033 15.3409 75.223 15.0682C74.9465 14.7955 74.5336 14.6591 73.9844 14.6591C73.4124 14.6591 72.9616 14.786 72.6321 15.0398C72.3063 15.2898 72.081 15.5682 71.956 15.875L70.3594 15.5114C70.5488 14.9811 70.8253 14.553 71.1889 14.2273C71.5563 13.8977 71.9787 13.6591 72.456 13.5114C72.9332 13.3598 73.4351 13.2841 73.9616 13.2841C74.3101 13.2841 74.6795 13.3258 75.0696 13.4091C75.4635 13.4886 75.831 13.6364 76.1719 13.8523C76.5166 14.0682 76.7988 14.3769 77.0185 14.7784C77.2382 15.1761 77.348 15.6932 77.348 16.3295V22.125H75.6889V20.9318H75.6207C75.5109 21.1515 75.3461 21.3674 75.1264 21.5795C74.9067 21.7917 74.6245 21.9678 74.2798 22.108C73.9351 22.2481 73.5223 22.3182 73.0412 22.3182ZM73.4105 20.9545C73.8802 20.9545 74.2817 20.8617 74.6151 20.6761C74.9522 20.4905 75.2079 20.2481 75.3821 19.9489C75.5601 19.6458 75.6491 19.322 75.6491 18.9773V17.8523C75.5885 17.9129 75.4711 17.9697 75.2969 18.0227C75.1264 18.072 74.9313 18.1155 74.7116 18.1534C74.492 18.1875 74.2779 18.2197 74.0696 18.25C73.8613 18.2765 73.687 18.2992 73.5469 18.3182C73.2173 18.3598 72.9162 18.4299 72.6435 18.5284C72.3745 18.6269 72.1586 18.7689 71.9957 18.9545C71.8366 19.1364 71.7571 19.3788 71.7571 19.6818C71.7571 20.1023 71.9124 20.4205 72.223 20.6364C72.5336 20.8485 72.9295 20.9545 73.4105 20.9545ZM79.6108 22.125V13.3977H81.2528V14.7841H81.3438C81.5028 14.3144 81.7831 13.9451 82.1847 13.6761C82.59 13.4034 83.0483 13.267 83.5597 13.267C83.6657 13.267 83.7907 13.2708 83.9347 13.2784C84.0824 13.286 84.1979 13.2955 84.2812 13.3068V14.9318C84.2131 14.9129 84.0919 14.892 83.9176 14.8693C83.7434 14.8428 83.5691 14.8295 83.3949 14.8295C82.9934 14.8295 82.6354 14.9148 82.321 15.0852C82.0104 15.2519 81.7642 15.4848 81.5824 15.7841C81.4006 16.0795 81.3097 16.4167 81.3097 16.7955V22.125H79.6108ZM88.706 22.2955C88.0014 22.2955 87.3726 22.1155 86.8196 21.7557C86.2704 21.392 85.8385 20.875 85.5241 20.2045C85.2135 19.5303 85.0582 18.7216 85.0582 17.7784C85.0582 16.8352 85.2154 16.0284 85.5298 15.358C85.848 14.6875 86.2836 14.1742 86.8366 13.8182C87.3897 13.4621 88.0166 13.2841 88.7173 13.2841C89.259 13.2841 89.6946 13.375 90.0241 13.5568C90.3575 13.7348 90.6151 13.9432 90.7969 14.1818C90.9825 14.4205 91.1264 14.6307 91.2287 14.8125H91.331V10.4886H93.0298V22.125H91.3707V20.767H91.2287C91.1264 20.9527 90.9787 21.1648 90.7855 21.4034C90.5961 21.642 90.3348 21.8504 90.0014 22.0284C89.6681 22.2064 89.2363 22.2955 88.706 22.2955ZM89.081 20.8466C89.5696 20.8466 89.9825 20.7178 90.3196 20.4602C90.6605 20.1989 90.9181 19.8371 91.0923 19.375C91.2704 18.9129 91.3594 18.375 91.3594 17.7614C91.3594 17.1553 91.2723 16.625 91.098 16.1705C90.9238 15.7159 90.6681 15.3617 90.331 15.108C89.9938 14.8542 89.5772 14.7273 89.081 14.7273C88.5696 14.7273 88.1435 14.8598 87.8026 15.125C87.4616 15.3902 87.2041 15.7519 87.0298 16.2102C86.8594 16.6686 86.7741 17.1856 86.7741 17.7614C86.7741 18.3447 86.8613 18.8693 87.0355 19.3352C87.2098 19.8011 87.4673 20.1705 87.8082 20.4432C88.1529 20.7121 88.5772 20.8466 89.081 20.8466ZM99.2159 22.3011C98.3561 22.3011 97.6155 22.1174 96.9943 21.75C96.3769 21.3788 95.8996 20.858 95.5625 20.1875C95.2292 19.5133 95.0625 18.7235 95.0625 17.8182C95.0625 16.9242 95.2292 16.1364 95.5625 15.4545C95.8996 14.7727 96.3693 14.2405 96.9716 13.858C97.5777 13.4754 98.286 13.2841 99.0966 13.2841C99.589 13.2841 100.066 13.3655 100.528 13.5284C100.991 13.6913 101.405 13.947 101.773 14.2955C102.14 14.6439 102.43 15.0966 102.642 15.6534C102.854 16.2064 102.96 16.8788 102.96 17.6705V18.2727H96.0227V17H101.295C101.295 16.553 101.205 16.1572 101.023 15.8125C100.841 15.464 100.585 15.1894 100.256 14.9886C99.9299 14.7879 99.5473 14.6875 99.108 14.6875C98.6307 14.6875 98.214 14.8049 97.858 15.0398C97.5057 15.2708 97.233 15.5739 97.0398 15.9489C96.8504 16.3201 96.7557 16.7235 96.7557 17.1591V18.1534C96.7557 18.7367 96.858 19.233 97.0625 19.642C97.2708 20.0511 97.5606 20.3636 97.9318 20.5795C98.303 20.7917 98.7367 20.8977 99.233 20.8977C99.5549 20.8977 99.8485 20.8523 100.114 20.7614C100.379 20.6667 100.608 20.5265 100.801 20.3409C100.994 20.1553 101.142 19.9261 101.244 19.6534L102.852 19.9432C102.723 20.4167 102.492 20.8314 102.159 21.1875C101.83 21.5398 101.415 21.8144 100.915 22.0114C100.419 22.2045 99.8523 22.3011 99.2159 22.3011ZM106.544 16.9432V22.125H104.845V13.3977H106.476V14.8182H106.584C106.785 14.3561 107.099 13.9848 107.527 13.7045C107.959 13.4242 108.502 13.2841 109.158 13.2841C109.752 13.2841 110.273 13.4091 110.72 13.6591C111.167 13.9053 111.514 14.2727 111.76 14.7614C112.006 15.25 112.129 15.8542 112.129 16.5739V22.125H110.43V16.7784C110.43 16.1458 110.266 15.6515 109.936 15.2955C109.607 14.9356 109.154 14.7557 108.578 14.7557C108.184 14.7557 107.834 14.8409 107.527 15.0114C107.224 15.1818 106.983 15.4318 106.805 15.7614C106.631 16.0871 106.544 16.4811 106.544 16.9432ZM120.947 15.5284L119.408 15.8011C119.343 15.6042 119.241 15.4167 119.101 15.2386C118.964 15.0606 118.779 14.9148 118.544 14.8011C118.309 14.6875 118.016 14.6307 117.663 14.6307C117.182 14.6307 116.781 14.7386 116.459 14.9545C116.137 15.1667 115.976 15.4413 115.976 15.7784C115.976 16.0701 116.084 16.3049 116.3 16.483C116.516 16.661 116.864 16.8068 117.345 16.9205L118.732 17.2386C119.535 17.4242 120.133 17.7102 120.527 18.0966C120.921 18.483 121.118 18.9848 121.118 19.6023C121.118 20.125 120.966 20.5909 120.663 21C120.364 21.4053 119.946 21.7235 119.408 21.9545C118.874 22.1856 118.254 22.3011 117.55 22.3011C116.572 22.3011 115.775 22.0928 115.158 21.6761C114.54 21.2557 114.161 20.6591 114.021 19.8864L115.663 19.6364C115.766 20.0644 115.976 20.3883 116.294 20.608C116.612 20.8239 117.027 20.9318 117.538 20.9318C118.095 20.9318 118.54 20.8163 118.874 20.5852C119.207 20.3504 119.374 20.0644 119.374 19.7273C119.374 19.4545 119.271 19.2254 119.067 19.0398C118.866 18.8542 118.557 18.714 118.141 18.6193L116.663 18.2955C115.849 18.1098 115.247 17.8144 114.857 17.4091C114.47 17.0038 114.277 16.4905 114.277 15.8693C114.277 15.3542 114.421 14.9034 114.709 14.517C114.997 14.1307 115.394 13.8295 115.902 13.6136C116.41 13.3939 116.991 13.2841 117.646 13.2841C118.589 13.2841 119.332 13.4886 119.874 13.8977C120.415 14.303 120.773 14.8466 120.947 15.5284Z" fill="white"/>
<defs>
<linearGradient id="paint0_linear_550_43" x1="-3.8583" y1="6.32753" x2="180.209" y2="30.1676" gradientUnits="userSpaceOnUse">
<stop stop-color="#333333"/>
<stop offset="1" stop-color="#201F1F"/>
</linearGradient>
</defs>
</svg>
