<svg width="161" height="103" viewBox="0 0 161 103" fill="none" xmlns="http://www.w3.org/2000/svg">
<path d="M38.75 16H1.25V102.5" stroke="white" stroke-width="2"/>
<rect x="27.5" y="0.75" width="133" height="32.25" fill="url(#paint0_linear_550_31)"/>
<rect x="27.5" y="0.75" width="5.84919" height="32.25" fill="white"/>
<path d="M52.375 13.7955C52.3144 13.2576 52.0644 12.8409 51.625 12.5455C51.1856 12.2462 50.6326 12.0966 49.9659 12.0966C49.4886 12.0966 49.0758 12.1723 48.7273 12.3239C48.3788 12.4716 48.108 12.6761 47.9148 12.9375C47.7254 13.1951 47.6307 13.4886 47.6307 13.8182C47.6307 14.0947 47.6951 14.3333 47.8239 14.5341C47.9564 14.7348 48.1288 14.9034 48.3409 15.0398C48.5568 15.1723 48.7879 15.2841 49.0341 15.375C49.2803 15.4621 49.517 15.5341 49.7443 15.5909L50.8807 15.8864C51.2519 15.9773 51.6326 16.1004 52.0227 16.2557C52.4129 16.411 52.7746 16.6155 53.108 16.8693C53.4413 17.1231 53.7102 17.4375 53.9148 17.8125C54.1231 18.1875 54.2273 18.6364 54.2273 19.1591C54.2273 19.8182 54.0568 20.4034 53.7159 20.9148C53.3788 21.4261 52.8883 21.8295 52.2443 22.125C51.6042 22.4205 50.8295 22.5682 49.9205 22.5682C49.0492 22.5682 48.2955 22.4299 47.6591 22.1534C47.0227 21.8769 46.5246 21.4848 46.1648 20.9773C45.8049 20.4659 45.6061 19.8598 45.5682 19.1591H47.3295C47.3636 19.5795 47.5 19.9299 47.7386 20.2102C47.9811 20.4867 48.2898 20.6932 48.6648 20.8295C49.0436 20.9621 49.4583 21.0284 49.9091 21.0284C50.4053 21.0284 50.8466 20.9508 51.233 20.7955C51.6231 20.6364 51.9299 20.4167 52.1534 20.1364C52.3769 19.8523 52.4886 19.5208 52.4886 19.142C52.4886 18.7973 52.3902 18.5152 52.1932 18.2955C52 18.0758 51.7367 17.8939 51.4034 17.75C51.0739 17.6061 50.7008 17.4792 50.2841 17.3693L48.9091 16.9943C47.9773 16.7405 47.2386 16.3674 46.6932 15.875C46.1515 15.3826 45.8807 14.7311 45.8807 13.9205C45.8807 13.25 46.0625 12.6648 46.4261 12.1648C46.7898 11.6648 47.2822 11.2765 47.9034 11C48.5246 10.7197 49.2254 10.5795 50.0057 10.5795C50.7936 10.5795 51.4886 10.7178 52.0909 10.9943C52.697 11.2708 53.1742 11.6515 53.5227 12.1364C53.8712 12.6174 54.053 13.1705 54.0682 13.7955H52.375ZM59.9503 22.5511C59.0904 22.5511 58.3499 22.3674 57.7287 22C57.1113 21.6288 56.634 21.108 56.2969 20.4375C55.9635 19.7633 55.7969 18.9735 55.7969 18.0682C55.7969 17.1742 55.9635 16.3864 56.2969 15.7045C56.634 15.0227 57.1037 14.4905 57.706 14.108C58.312 13.7254 59.0204 13.5341 59.831 13.5341C60.3234 13.5341 60.8007 13.6155 61.2628 13.7784C61.7249 13.9413 62.1397 14.197 62.5071 14.5455C62.8745 14.8939 63.1643 15.3466 63.3764 15.9034C63.5885 16.4564 63.6946 17.1288 63.6946 17.9205V18.5227H56.7571V17.25H62.0298C62.0298 16.803 61.9389 16.4072 61.7571 16.0625C61.5753 15.714 61.3196 15.4394 60.9901 15.2386C60.6643 15.0379 60.2817 14.9375 59.8423 14.9375C59.3651 14.9375 58.9484 15.0549 58.5923 15.2898C58.2401 15.5208 57.9673 15.8239 57.7741 16.1989C57.5848 16.5701 57.4901 16.9735 57.4901 17.4091V18.4034C57.4901 18.9867 57.5923 19.483 57.7969 19.892C58.0052 20.3011 58.295 20.6136 58.6662 20.8295C59.0374 21.0417 59.4711 21.1477 59.9673 21.1477C60.2893 21.1477 60.5829 21.1023 60.848 21.0114C61.1132 20.9167 61.3423 20.7765 61.5355 20.5909C61.7287 20.4053 61.8764 20.1761 61.9787 19.9034L63.5866 20.1932C63.4579 20.6667 63.2268 21.0814 62.8935 21.4375C62.5639 21.7898 62.1491 22.0644 61.6491 22.2614C61.1529 22.4545 60.5866 22.5511 59.9503 22.5511ZM68.1193 22.5682C67.5663 22.5682 67.0663 22.4659 66.6193 22.2614C66.1723 22.053 65.8182 21.7519 65.5568 21.358C65.2992 20.964 65.1705 20.4811 65.1705 19.9091C65.1705 19.4167 65.2652 19.0114 65.4545 18.6932C65.6439 18.375 65.8996 18.1231 66.2216 17.9375C66.5436 17.7519 66.9034 17.6117 67.3011 17.517C67.6989 17.4223 68.1042 17.3504 68.517 17.3011C69.0398 17.2405 69.464 17.1913 69.7898 17.1534C70.1155 17.1117 70.3523 17.0455 70.5 16.9545C70.6477 16.8636 70.7216 16.7159 70.7216 16.5114V16.4716C70.7216 15.9754 70.5814 15.5909 70.3011 15.3182C70.0246 15.0455 69.6117 14.9091 69.0625 14.9091C68.4905 14.9091 68.0398 15.036 67.7102 15.2898C67.3845 15.5398 67.1591 15.8182 67.0341 16.125L65.4375 15.7614C65.6269 15.2311 65.9034 14.803 66.267 14.4773C66.6345 14.1477 67.0568 13.9091 67.5341 13.7614C68.0114 13.6098 68.5133 13.5341 69.0398 13.5341C69.3883 13.5341 69.7576 13.5758 70.1477 13.6591C70.5417 13.7386 70.9091 13.8864 71.25 14.1023C71.5947 14.3182 71.8769 14.6269 72.0966 15.0284C72.3163 15.4261 72.4261 15.9432 72.4261 16.5795V22.375H70.767V21.1818H70.6989C70.589 21.4015 70.4242 21.6174 70.2045 21.8295C69.9848 22.0417 69.7027 22.2178 69.358 22.358C69.0133 22.4981 68.6004 22.5682 68.1193 22.5682ZM68.4886 21.2045C68.9583 21.2045 69.3598 21.1117 69.6932 20.9261C70.0303 20.7405 70.286 20.4981 70.4602 20.1989C70.6383 19.8958 70.7273 19.572 70.7273 19.2273V18.1023C70.6667 18.1629 70.5492 18.2197 70.375 18.2727C70.2045 18.322 70.0095 18.3655 69.7898 18.4034C69.5701 18.4375 69.3561 18.4697 69.1477 18.5C68.9394 18.5265 68.7652 18.5492 68.625 18.5682C68.2955 18.6098 67.9943 18.6799 67.7216 18.7784C67.4527 18.8769 67.2367 19.0189 67.0739 19.2045C66.9148 19.3864 66.8352 19.6288 66.8352 19.9318C66.8352 20.3523 66.9905 20.6705 67.3011 20.8864C67.6117 21.0985 68.0076 21.2045 68.4886 21.2045ZM81.2287 15.7784L79.6889 16.0511C79.6245 15.8542 79.5223 15.6667 79.3821 15.4886C79.2457 15.3106 79.0601 15.1648 78.8253 15.0511C78.5904 14.9375 78.2969 14.8807 77.9446 14.8807C77.4635 14.8807 77.062 14.9886 76.7401 15.2045C76.4181 15.4167 76.2571 15.6913 76.2571 16.0284C76.2571 16.3201 76.3651 16.5549 76.581 16.733C76.7969 16.911 77.1454 17.0568 77.6264 17.1705L79.0128 17.4886C79.8158 17.6742 80.4143 17.9602 80.8082 18.3466C81.2022 18.733 81.3991 19.2348 81.3991 19.8523C81.3991 20.375 81.2476 20.8409 80.9446 21.25C80.6454 21.6553 80.2268 21.9735 79.6889 22.2045C79.1548 22.4356 78.5355 22.5511 77.831 22.5511C76.8537 22.5511 76.0563 22.3428 75.4389 21.9261C74.8215 21.5057 74.4427 20.9091 74.3026 20.1364L75.9446 19.8864C76.0469 20.3144 76.2571 20.6383 76.5753 20.858C76.8935 21.0739 77.3082 21.1818 77.8196 21.1818C78.3764 21.1818 78.8215 21.0663 79.1548 20.8352C79.4882 20.6004 79.6548 20.3144 79.6548 19.9773C79.6548 19.7045 79.5526 19.4754 79.348 19.2898C79.1473 19.1042 78.8385 18.964 78.4219 18.8693L76.9446 18.5455C76.1302 18.3598 75.5279 18.0644 75.1378 17.6591C74.7514 17.2538 74.5582 16.7405 74.5582 16.1193C74.5582 15.6042 74.7022 15.1534 74.9901 14.767C75.2779 14.3807 75.6757 14.0795 76.1832 13.8636C76.6908 13.6439 77.2723 13.5341 77.9276 13.5341C78.8707 13.5341 79.6132 13.7386 80.1548 14.1477C80.6965 14.553 81.0545 15.0966 81.2287 15.7784ZM86.9432 22.5511C86.125 22.5511 85.411 22.3636 84.8011 21.9886C84.1913 21.6136 83.7178 21.089 83.3807 20.4148C83.0436 19.7405 82.875 18.9527 82.875 18.0511C82.875 17.1458 83.0436 16.3542 83.3807 15.6761C83.7178 14.9981 84.1913 14.4716 84.8011 14.0966C85.411 13.7216 86.125 13.5341 86.9432 13.5341C87.7614 13.5341 88.4754 13.7216 89.0852 14.0966C89.6951 14.4716 90.1686 14.9981 90.5057 15.6761C90.8428 16.3542 91.0114 17.1458 91.0114 18.0511C91.0114 18.9527 90.8428 19.7405 90.5057 20.4148C90.1686 21.089 89.6951 21.6136 89.0852 21.9886C88.4754 22.3636 87.7614 22.5511 86.9432 22.5511ZM86.9489 21.125C87.4792 21.125 87.9186 20.9848 88.267 20.7045C88.6155 20.4242 88.8731 20.0511 89.0398 19.5852C89.2102 19.1193 89.2955 18.6061 89.2955 18.0455C89.2955 17.4886 89.2102 16.9773 89.0398 16.5114C88.8731 16.0417 88.6155 15.6648 88.267 15.3807C87.9186 15.0966 87.4792 14.9545 86.9489 14.9545C86.4148 14.9545 85.9716 15.0966 85.6193 15.3807C85.2708 15.6648 85.0114 16.0417 84.8409 16.5114C84.6742 16.9773 84.5909 17.4886 84.5909 18.0455C84.5909 18.6061 84.6742 19.1193 84.8409 19.5852C85.0114 20.0511 85.2708 20.4242 85.6193 20.7045C85.9716 20.9848 86.4148 21.125 86.9489 21.125ZM94.6065 17.1932V22.375H92.9077V13.6477H94.5384V15.0682H94.6463C94.8471 14.6061 95.1615 14.2348 95.5895 13.9545C96.0213 13.6742 96.5649 13.5341 97.2202 13.5341C97.8149 13.5341 98.3357 13.6591 98.7827 13.9091C99.2296 14.1553 99.5762 14.5227 99.8224 15.0114C100.069 15.5 100.192 16.1042 100.192 16.8239V22.375H98.4929V17.0284C98.4929 16.3958 98.3281 15.9015 97.9986 15.5455C97.669 15.1856 97.2164 15.0057 96.6406 15.0057C96.2467 15.0057 95.8963 15.0909 95.5895 15.2614C95.2865 15.4318 95.0459 15.6818 94.8679 16.0114C94.6937 16.3371 94.6065 16.7311 94.6065 17.1932ZM109.01 15.7784L107.47 16.0511C107.406 15.8542 107.304 15.6667 107.163 15.4886C107.027 15.3106 106.841 15.1648 106.607 15.0511C106.372 14.9375 106.078 14.8807 105.726 14.8807C105.245 14.8807 104.843 14.9886 104.521 15.2045C104.199 15.4167 104.038 15.6913 104.038 16.0284C104.038 16.3201 104.146 16.5549 104.362 16.733C104.578 16.911 104.927 17.0568 105.408 17.1705L106.794 17.4886C107.597 17.6742 108.196 17.9602 108.589 18.3466C108.983 18.733 109.18 19.2348 109.18 19.8523C109.18 20.375 109.029 20.8409 108.726 21.25C108.427 21.6553 108.008 21.9735 107.47 22.2045C106.936 22.4356 106.317 22.5511 105.612 22.5511C104.635 22.5511 103.838 22.3428 103.22 21.9261C102.603 21.5057 102.224 20.9091 102.084 20.1364L103.726 19.8864C103.828 20.3144 104.038 20.6383 104.357 20.858C104.675 21.0739 105.089 21.1818 105.601 21.1818C106.158 21.1818 106.603 21.0663 106.936 20.8352C107.269 20.6004 107.436 20.3144 107.436 19.9773C107.436 19.7045 107.334 19.4754 107.129 19.2898C106.929 19.1042 106.62 18.964 106.203 18.8693L104.726 18.5455C103.911 18.3598 103.309 18.0644 102.919 17.6591C102.533 17.2538 102.339 16.7405 102.339 16.1193C102.339 15.6042 102.483 15.1534 102.771 14.767C103.059 14.3807 103.457 14.0795 103.964 13.8636C104.472 13.6439 105.054 13.5341 105.709 13.5341C106.652 13.5341 107.394 13.7386 107.936 14.1477C108.478 14.553 108.836 15.0966 109.01 15.7784ZM115.419 10.7386H117.55L121.254 19.7841H121.391L125.095 10.7386H127.226V22.375H125.555V13.9545H125.447L122.016 22.358H120.629L117.197 13.9489H117.089V22.375H115.419V10.7386ZM132.182 22.5682C131.629 22.5682 131.129 22.4659 130.682 22.2614C130.235 22.053 129.881 21.7519 129.619 21.358C129.362 20.964 129.233 20.4811 129.233 19.9091C129.233 19.4167 129.328 19.0114 129.517 18.6932C129.706 18.375 129.962 18.1231 130.284 17.9375C130.606 17.7519 130.966 17.6117 131.364 17.517C131.761 17.4223 132.167 17.3504 132.58 17.3011C133.102 17.2405 133.527 17.1913 133.852 17.1534C134.178 17.1117 134.415 17.0455 134.562 16.9545C134.71 16.8636 134.784 16.7159 134.784 16.5114V16.4716C134.784 15.9754 134.644 15.5909 134.364 15.3182C134.087 15.0455 133.674 14.9091 133.125 14.9091C132.553 14.9091 132.102 15.036 131.773 15.2898C131.447 15.5398 131.222 15.8182 131.097 16.125L129.5 15.7614C129.689 15.2311 129.966 14.803 130.33 14.4773C130.697 14.1477 131.119 13.9091 131.597 13.7614C132.074 13.6098 132.576 13.5341 133.102 13.5341C133.451 13.5341 133.82 13.5758 134.21 13.6591C134.604 13.7386 134.972 13.8864 135.312 14.1023C135.657 14.3182 135.939 14.6269 136.159 15.0284C136.379 15.4261 136.489 15.9432 136.489 16.5795V22.375H134.83V21.1818H134.761C134.652 21.4015 134.487 21.6174 134.267 21.8295C134.047 22.0417 133.765 22.2178 133.42 22.358C133.076 22.4981 132.663 22.5682 132.182 22.5682ZM132.551 21.2045C133.021 21.2045 133.422 21.1117 133.756 20.9261C134.093 20.7405 134.348 20.4981 134.523 20.1989C134.701 19.8958 134.79 19.572 134.79 19.2273V18.1023C134.729 18.1629 134.612 18.2197 134.438 18.2727C134.267 18.322 134.072 18.3655 133.852 18.4034C133.633 18.4375 133.419 18.4697 133.21 18.5C133.002 18.5265 132.828 18.5492 132.688 18.5682C132.358 18.6098 132.057 18.6799 131.784 18.7784C131.515 18.8769 131.299 19.0189 131.136 19.2045C130.977 19.3864 130.898 19.6288 130.898 19.9318C130.898 20.3523 131.053 20.6705 131.364 20.8864C131.674 21.0985 132.07 21.2045 132.551 21.2045ZM140.45 10.7386V22.375H138.751V10.7386H140.45ZM144.435 10.7386V22.375H142.736V10.7386H144.435Z" fill="white"/>
<defs>
<linearGradient id="paint0_linear_550_31" x1="23.8989" y1="7.07753" x2="196.061" y2="27.8891" gradientUnits="userSpaceOnUse">
<stop stop-color="#333333"/>
<stop offset="1" stop-color="#201F1F"/>
</linearGradient>
</defs>
</svg>
