<svg width="131" height="118" viewBox="0 0 131 118" fill="none" xmlns="http://www.w3.org/2000/svg">
<path d="M65.1504 0V86.5" stroke="white" stroke-width="2"/>
<rect x="0.275391" y="85.25" width="129.75" height="32.25" fill="url(#paint0_linear_550_7)"/>
<rect x="0.275391" y="88" width="3.04963" height="129.75" transform="rotate(-90 0.275391 88)" fill="white"/>
<path d="M21.0822 108.5L17.8549 96.8636H19.7015L21.9686 105.875H22.0765L24.4345 96.8636H26.264L28.622 105.881H28.7299L30.9913 96.8636H32.8436L29.6106 108.5H27.8436L25.3947 99.7841H25.3038L22.8549 108.5H21.0822ZM37.21 108.676C36.3502 108.676 35.6097 108.492 34.9885 108.125C34.371 107.754 33.8938 107.233 33.5566 106.562C33.2233 105.888 33.0566 105.098 33.0566 104.193C33.0566 103.299 33.2233 102.511 33.5566 101.83C33.8938 101.148 34.3635 100.616 34.9657 100.233C35.5718 99.8504 36.2801 99.6591 37.0907 99.6591C37.5832 99.6591 38.0604 99.7405 38.5226 99.9034C38.9847 100.066 39.3994 100.322 39.7669 100.67C40.1343 101.019 40.4241 101.472 40.6362 102.028C40.8483 102.581 40.9544 103.254 40.9544 104.045V104.648H34.0169V103.375H39.2896C39.2896 102.928 39.1987 102.532 39.0169 102.188C38.835 101.839 38.5794 101.564 38.2498 101.364C37.9241 101.163 37.5415 101.062 37.1021 101.062C36.6248 101.062 36.2082 101.18 35.8521 101.415C35.4998 101.646 35.2271 101.949 35.0339 102.324C34.8445 102.695 34.7498 103.098 34.7498 103.534V104.528C34.7498 105.112 34.8521 105.608 35.0566 106.017C35.265 106.426 35.5547 106.739 35.926 106.955C36.2972 107.167 36.7309 107.273 37.2271 107.273C37.5491 107.273 37.8426 107.227 38.1078 107.136C38.3729 107.042 38.6021 106.902 38.7953 106.716C38.9885 106.53 39.1362 106.301 39.2385 106.028L40.8464 106.318C40.7176 106.792 40.4866 107.206 40.1532 107.562C39.8237 107.915 39.4089 108.189 38.9089 108.386C38.4127 108.58 37.8464 108.676 37.21 108.676ZM49.3791 101.903L47.8393 102.176C47.7749 101.979 47.6726 101.792 47.5325 101.614C47.3961 101.436 47.2105 101.29 46.9757 101.176C46.7408 101.062 46.4473 101.006 46.095 101.006C45.6139 101.006 45.2124 101.114 44.8904 101.33C44.5685 101.542 44.4075 101.816 44.4075 102.153C44.4075 102.445 44.5154 102.68 44.7314 102.858C44.9473 103.036 45.2958 103.182 45.7768 103.295L47.1632 103.614C47.9662 103.799 48.5647 104.085 48.9586 104.472C49.3526 104.858 49.5495 105.36 49.5495 105.977C49.5495 106.5 49.398 106.966 49.095 107.375C48.7958 107.78 48.3772 108.098 47.8393 108.33C47.3052 108.561 46.6859 108.676 45.9814 108.676C45.0041 108.676 44.2067 108.468 43.5893 108.051C42.9719 107.631 42.5931 107.034 42.4529 106.261L44.095 106.011C44.1973 106.439 44.4075 106.763 44.7257 106.983C45.0439 107.199 45.4586 107.307 45.97 107.307C46.5268 107.307 46.9719 107.191 47.3052 106.96C47.6386 106.725 47.8052 106.439 47.8052 106.102C47.8052 105.83 47.7029 105.6 47.4984 105.415C47.2976 105.229 46.9889 105.089 46.5723 104.994L45.095 104.67C44.2806 104.485 43.6783 104.189 43.2882 103.784C42.9018 103.379 42.7086 102.866 42.7086 102.244C42.7086 101.729 42.8526 101.278 43.1404 100.892C43.4283 100.506 43.8261 100.205 44.3336 99.9886C44.8412 99.7689 45.4226 99.6591 46.0779 99.6591C47.0211 99.6591 47.7636 99.8636 48.3052 100.273C48.8469 100.678 49.2048 101.222 49.3791 101.903ZM55.4913 99.7727V101.136H50.7243V99.7727H55.4913ZM52.0027 97.6818H53.7015V105.938C53.7015 106.267 53.7508 106.515 53.8493 106.682C53.9477 106.845 54.0746 106.956 54.2299 107.017C54.389 107.074 54.5614 107.102 54.747 107.102C54.8833 107.102 55.0027 107.093 55.1049 107.074C55.2072 107.055 55.2868 107.04 55.3436 107.028L55.6504 108.432C55.5519 108.47 55.4118 108.508 55.2299 108.545C55.0481 108.587 54.8208 108.61 54.5481 108.614C54.1011 108.621 53.6845 108.542 53.2981 108.375C52.9118 108.208 52.5993 107.951 52.3606 107.602C52.122 107.254 52.0027 106.816 52.0027 106.29V97.6818ZM57.3706 108.5V99.7727H59.0694V108.5H57.3706ZM58.2285 98.4261C57.9331 98.4261 57.6793 98.3277 57.4672 98.1307C57.2588 97.9299 57.1547 97.6913 57.1547 97.4148C57.1547 97.1345 57.2588 96.8958 57.4672 96.6989C57.6793 96.4981 57.9331 96.3977 58.2285 96.3977C58.524 96.3977 58.7759 96.4981 58.9842 96.6989C59.1963 96.8958 59.3024 97.1345 59.3024 97.4148C59.3024 97.6913 59.1963 97.9299 58.9842 98.1307C58.7759 98.3277 58.524 98.4261 58.2285 98.4261ZM63.0538 103.318V108.5H61.3549V99.7727H62.9856V101.193H63.0936C63.2943 100.731 63.6087 100.36 64.0368 100.08C64.4686 99.7992 65.0121 99.6591 65.6674 99.6591C66.2621 99.6591 66.783 99.7841 67.2299 100.034C67.6769 100.28 68.0235 100.648 68.2697 101.136C68.5159 101.625 68.639 102.229 68.639 102.949V108.5H66.9402V103.153C66.9402 102.521 66.7754 102.027 66.4458 101.67C66.1163 101.311 65.6636 101.131 65.0879 101.131C64.694 101.131 64.3436 101.216 64.0368 101.386C63.7337 101.557 63.4932 101.807 63.3152 102.136C63.1409 102.462 63.0538 102.856 63.0538 103.318ZM75.2882 108.5V96.8636H77.0439V101.92H82.845V96.8636H84.6064V108.5H82.845V103.426H77.0439V108.5H75.2882ZM90.7029 108.676C89.8848 108.676 89.1708 108.489 88.5609 108.114C87.9511 107.739 87.4776 107.214 87.1404 106.54C86.8033 105.866 86.6348 105.078 86.6348 104.176C86.6348 103.271 86.8033 102.479 87.1404 101.801C87.4776 101.123 87.9511 100.597 88.5609 100.222C89.1708 99.8466 89.8848 99.6591 90.7029 99.6591C91.5211 99.6591 92.2351 99.8466 92.845 100.222C93.4548 100.597 93.9283 101.123 94.2654 101.801C94.6026 102.479 94.7711 103.271 94.7711 104.176C94.7711 105.078 94.6026 105.866 94.2654 106.54C93.9283 107.214 93.4548 107.739 92.845 108.114C92.2351 108.489 91.5211 108.676 90.7029 108.676ZM90.7086 107.25C91.2389 107.25 91.6783 107.11 92.0268 106.83C92.3753 106.549 92.6329 106.176 92.7995 105.71C92.97 105.244 93.0552 104.731 93.0552 104.17C93.0552 103.614 92.97 103.102 92.7995 102.636C92.6329 102.167 92.3753 101.79 92.0268 101.506C91.6783 101.222 91.2389 101.08 90.7086 101.08C90.1745 101.08 89.7314 101.222 89.3791 101.506C89.0306 101.79 88.7711 102.167 88.6007 102.636C88.434 103.102 88.3507 103.614 88.3507 104.17C88.3507 104.731 88.434 105.244 88.6007 105.71C88.7711 106.176 89.0306 106.549 89.3791 106.83C89.7314 107.11 90.1745 107.25 90.7086 107.25ZM100.741 99.7727V101.136H95.9743V99.7727H100.741ZM97.2527 97.6818H98.9515V105.938C98.9515 106.267 99.0008 106.515 99.0993 106.682C99.1977 106.845 99.3246 106.956 99.4799 107.017C99.639 107.074 99.8114 107.102 99.997 107.102C100.133 107.102 100.253 107.093 100.355 107.074C100.457 107.055 100.537 107.04 100.594 107.028L100.9 108.432C100.802 108.47 100.662 108.508 100.48 108.545C100.298 108.587 100.071 108.61 99.7981 108.614C99.3511 108.621 98.9345 108.542 98.5481 108.375C98.1618 108.208 97.8493 107.951 97.6106 107.602C97.372 107.254 97.2527 106.816 97.2527 106.29V97.6818ZM106.288 108.676C105.428 108.676 104.688 108.492 104.067 108.125C103.449 107.754 102.972 107.233 102.635 106.562C102.301 105.888 102.135 105.098 102.135 104.193C102.135 103.299 102.301 102.511 102.635 101.83C102.972 101.148 103.442 100.616 104.044 100.233C104.65 99.8504 105.358 99.6591 106.169 99.6591C106.661 99.6591 107.139 99.7405 107.601 99.9034C108.063 100.066 108.478 100.322 108.845 100.67C109.212 101.019 109.502 101.472 109.714 102.028C109.926 102.581 110.032 103.254 110.032 104.045V104.648H103.095V103.375H108.368C108.368 102.928 108.277 102.532 108.095 102.188C107.913 101.839 107.657 101.564 107.328 101.364C107.002 101.163 106.62 101.062 106.18 101.062C105.703 101.062 105.286 101.18 104.93 101.415C104.578 101.646 104.305 101.949 104.112 102.324C103.923 102.695 103.828 103.098 103.828 103.534V104.528C103.828 105.112 103.93 105.608 104.135 106.017C104.343 106.426 104.633 106.739 105.004 106.955C105.375 107.167 105.809 107.273 106.305 107.273C106.627 107.273 106.921 107.227 107.186 107.136C107.451 107.042 107.68 106.902 107.873 106.716C108.067 106.53 108.214 106.301 108.317 106.028L109.925 106.318C109.796 106.792 109.565 107.206 109.231 107.562C108.902 107.915 108.487 108.189 107.987 108.386C107.491 108.58 106.925 108.676 106.288 108.676ZM113.616 96.8636V108.5H111.917V96.8636H113.616Z" fill="white"/>
<defs>
<linearGradient id="paint0_linear_550_7" x1="-3.2377" y1="91.5775" x2="164.834" y2="111.398" gradientUnits="userSpaceOnUse">
<stop stop-color="#333333"/>
<stop offset="1" stop-color="#201F1F"/>
</linearGradient>
</defs>
</svg>
